<?xml version="1.0" encoding="UTF-8" standalone="no"?>
<!DOCTYPE svg PUBLIC "-//W3C//DTD SVG 1.1//EN"
 "http://www.w3.org/Graphics/SVG/1.1/DTD/svg11.dtd">
<!-- Generated by graphviz version 2.40.1 (20161225.0304)
 -->
<!-- Title: foo Pages: 1 -->
<svg width="522pt" height="116pt"
 viewBox="0.00 0.00 522.19 116.00" xmlns="http://www.w3.org/2000/svg" xmlns:xlink="http://www.w3.org/1999/xlink">
<g id="graph0" class="graph" transform="scale(1 1) rotate(0) translate(4 112)">
<title>foo</title>
<polygon fill="#ffffff" stroke="transparent" points="-4,4 -4,-112 518.1866,-112 518.1866,4 -4,4"/>
<!-- Carpet -->
<g id="node1" class="node">
<title>Carpet</title>
<ellipse fill="none" stroke="#000000" cx="243.0091" cy="-90" rx="38.2445" ry="18"/>
<text text-anchor="middle" x="243.0091" y="-86.7536" font-family="Georgia" font-size="14.00" fill="#000000">Carpet</text>
</g>
<!-- CarpetLib -->
<g id="node2" class="node">
<title>CarpetLib</title>
<ellipse fill="none" stroke="#000000" cx="52.0091" cy="-18" rx="52.0182" ry="18"/>
<text text-anchor="middle" x="52.0091" y="-14.7536" font-family="Georgia" font-size="14.00" fill="#000000">CarpetLib</text>
</g>
<!-- Carpet&#45;&gt;CarpetLib -->
<g id="edge1" class="edge">
<title>Carpet&#45;&gt;CarpetLib</title>
<path fill="none" stroke="#000000" d="M212.7446,-78.5914C181.5922,-66.8481 132.6996,-48.4174 97.0129,-34.9648"/>
<polygon fill="#000000" stroke="#000000" points="97.9151,-31.5645 87.3232,-31.3121 95.4459,-38.1146 97.9151,-31.5645"/>
</g>
<!-- IOUtil -->
<g id="node3" class="node">
<title>IOUtil</title>
<ellipse fill="none" stroke="#000000" cx="159.0091" cy="-18" rx="37.1018" ry="18"/>
<text text-anchor="middle" x="159.0091" y="-14.7536" font-family="Georgia" font-size="14.00" fill="#000000">IOUtil</text>
</g>
<!-- Carpet&#45;&gt;IOUtil -->
<g id="edge2" class="edge">
<title>Carpet&#45;&gt;IOUtil</title>
<path fill="none" stroke="#000000" d="M224.3668,-74.0209C212.8685,-64.1652 197.9457,-51.3742 185.2628,-40.5032"/>
<polygon fill="#000000" stroke="#000000" points="187.1807,-37.5373 177.3103,-33.6867 182.6251,-42.8521 187.1807,-37.5373"/>
</g>
<!-- MPI -->
<g id="node4" class="node">
<title>MPI</title>
<ellipse fill="none" stroke="#000000" cx="243.0091" cy="-18" rx="28.9814" ry="18"/>
<text text-anchor="middle" x="243.0091" y="-14.7536" font-family="Georgia" font-size="14.00" fill="#000000">MPI</text>
</g>
<!-- Carpet&#45;&gt;MPI -->
<g id="edge3" class="edge">
<title>Carpet&#45;&gt;MPI</title>
<path fill="none" stroke="#000000" d="M243.0091,-71.8314C243.0091,-64.131 243.0091,-54.9743 243.0091,-46.4166"/>
<polygon fill="#000000" stroke="#000000" points="246.5092,-46.4132 243.0091,-36.4133 239.5092,-46.4133 246.5092,-46.4132"/>
</g>
<!-- Timers -->
<g id="node5" class="node">
<title>Timers</title>
<ellipse fill="none" stroke="#000000" cx="330.0091" cy="-18" rx="39.7799" ry="18"/>
<text text-anchor="middle" x="330.0091" y="-14.7536" font-family="Georgia" font-size="14.00" fill="#000000">Timers</text>
</g>
<!-- Carpet&#45;&gt;Timers -->
<g id="edge4" class="edge">
<title>Carpet&#45;&gt;Timers</title>
<path fill="none" stroke="#000000" d="M262.3172,-74.0209C274.2566,-64.14 289.7612,-51.3086 302.9187,-40.4197"/>
<polygon fill="#000000" stroke="#000000" points="305.2825,-43.0066 310.755,-33.9345 300.8195,-37.6138 305.2825,-43.0066"/>
</g>
<!-- LoopControl -->
<g id="node6" class="node">
<title>LoopControl</title>
<ellipse fill="none" stroke="#000000" cx="451.0091" cy="-18" rx="63.3555" ry="18"/>
<text text-anchor="middle" x="451.0091" y="-14.7536" font-family="Georgia" font-size="14.00" fill="#000000">LoopControl</text>
</g>
<!-- Carpet&#45;&gt;LoopControl -->
<g id="edge5" class="edge">
<title>Carpet&#45;&gt;LoopControl</title>
<path fill="none" stroke="#000000" d="M274.1488,-79.2209C307.6857,-67.612 361.5363,-48.9713 401.0161,-35.3053"/>
<polygon fill="#000000" stroke="#000000" points="402.4176,-38.524 410.7226,-31.9453 400.1278,-31.9091 402.4176,-38.524"/>
</g>
</g>
</svg>
