<?xml version="1.0" encoding="UTF-8" standalone="no"?>
<!DOCTYPE svg PUBLIC "-//W3C//DTD SVG 1.1//EN"
 "http://www.w3.org/Graphics/SVG/1.1/DTD/svg11.dtd">
<!-- Generated by graphviz version 2.40.1 (20161225.0304)
 -->
<!-- Title: foo Pages: 1 -->
<svg width="381pt" height="116pt"
 viewBox="0.00 0.00 380.51 116.00" xmlns="http://www.w3.org/2000/svg" xmlns:xlink="http://www.w3.org/1999/xlink">
<g id="graph0" class="graph" transform="scale(1 1) rotate(0) translate(4 112)">
<title>foo</title>
<polygon fill="#ffffff" stroke="transparent" points="-4,4 -4,-112 376.5065,-112 376.5065,4 -4,4"/>
<!-- smallbPoynET -->
<g id="node1" class="node">
<title>smallbPoynET</title>
<ellipse fill="none" stroke="#000000" cx="193.4197" cy="-90" rx="71.237" ry="18"/>
<text text-anchor="middle" x="193.4197" y="-86.7536" font-family="Georgia" font-size="14.00" fill="#000000">smallbPoynET</text>
</g>
<!-- CartGrid3D -->
<g id="node2" class="node">
<title>CartGrid3D</title>
<ellipse fill="none" stroke="#000000" cx="59.4197" cy="-18" rx="59.3394" ry="18"/>
<text text-anchor="middle" x="59.4197" y="-14.7536" font-family="Georgia" font-size="14.00" fill="#000000">CartGrid3D</text>
</g>
<!-- smallbPoynET&#45;&gt;CartGrid3D -->
<g id="edge1" class="edge">
<title>smallbPoynET&#45;&gt;CartGrid3D</title>
<path fill="none" stroke="#000000" d="M163.013,-73.6621C143.6409,-63.2532 118.3813,-49.6809 97.6549,-38.5443"/>
<polygon fill="#000000" stroke="#000000" points="99.2507,-35.4285 88.7851,-33.7784 95.9374,-41.5948 99.2507,-35.4285"/>
</g>
<!-- HydroBase -->
<g id="node3" class="node">
<title>HydroBase</title>
<ellipse fill="none" stroke="#000000" cx="193.4197" cy="-18" rx="56.7165" ry="18"/>
<text text-anchor="middle" x="193.4197" y="-14.7536" font-family="Georgia" font-size="14.00" fill="#000000">HydroBase</text>
</g>
<!-- smallbPoynET&#45;&gt;HydroBase -->
<g id="edge2" class="edge">
<title>smallbPoynET&#45;&gt;HydroBase</title>
<path fill="none" stroke="#000000" d="M193.4197,-71.8314C193.4197,-64.131 193.4197,-54.9743 193.4197,-46.4166"/>
<polygon fill="#000000" stroke="#000000" points="196.9198,-46.4132 193.4197,-36.4133 189.9198,-46.4133 196.9198,-46.4132"/>
</g>
<!-- ADMBase -->
<g id="node4" class="node">
<title>ADMBase</title>
<ellipse fill="none" stroke="#000000" cx="320.4197" cy="-18" rx="52.1738" ry="18"/>
<text text-anchor="middle" x="320.4197" y="-14.7536" font-family="Georgia" font-size="14.00" fill="#000000">ADMBase</text>
</g>
<!-- smallbPoynET&#45;&gt;ADMBase -->
<g id="edge3" class="edge">
<title>smallbPoynET&#45;&gt;ADMBase</title>
<path fill="none" stroke="#000000" d="M222.556,-73.4817C240.8898,-63.0878 264.6925,-49.5934 284.2324,-38.5156"/>
<polygon fill="#000000" stroke="#000000" points="286.1836,-41.4328 293.1567,-33.4562 282.7313,-35.3433 286.1836,-41.4328"/>
</g>
</g>
</svg>
