<?xml version="1.0" encoding="UTF-8" standalone="no"?>
<!DOCTYPE svg PUBLIC "-//W3C//DTD SVG 1.1//EN"
 "http://www.w3.org/Graphics/SVG/1.1/DTD/svg11.dtd">
<!-- Generated by graphviz version 2.40.1 (20161225.0304)
 -->
<!-- Title: foo Pages: 1 -->
<svg width="230pt" height="116pt"
 viewBox="0.00 0.00 229.55 116.00" xmlns="http://www.w3.org/2000/svg" xmlns:xlink="http://www.w3.org/1999/xlink">
<g id="graph0" class="graph" transform="scale(1 1) rotate(0) translate(4 112)">
<title>foo</title>
<polygon fill="#ffffff" stroke="transparent" points="-4,4 -4,-112 225.5496,-112 225.5496,4 -4,4"/>
<!-- CarpetReduce -->
<g id="node1" class="node">
<title>CarpetReduce</title>
<ellipse fill="none" stroke="#000000" cx="98.372" cy="-90" rx="69.0126" ry="18"/>
<text text-anchor="middle" x="98.372" y="-86.7536" font-family="Georgia" font-size="14.00" fill="#000000">CarpetReduce</text>
</g>
<!-- Carpet -->
<g id="node2" class="node">
<title>Carpet</title>
<ellipse fill="none" stroke="#000000" cx="38.372" cy="-18" rx="38.2445" ry="18"/>
<text text-anchor="middle" x="38.372" y="-14.7536" font-family="Georgia" font-size="14.00" fill="#000000">Carpet</text>
</g>
<!-- CarpetReduce&#45;&gt;Carpet -->
<g id="edge1" class="edge">
<title>CarpetReduce&#45;&gt;Carpet</title>
<path fill="none" stroke="#000000" d="M83.5406,-72.2022C76.1663,-63.3531 67.1326,-52.5127 59.0872,-42.8583"/>
<polygon fill="#000000" stroke="#000000" points="61.7104,-40.5388 52.6197,-35.0972 56.3328,-45.0201 61.7104,-40.5388"/>
</g>
<!-- LoopControl -->
<g id="node3" class="node">
<title>LoopControl</title>
<ellipse fill="none" stroke="#000000" cx="158.372" cy="-18" rx="63.3555" ry="18"/>
<text text-anchor="middle" x="158.372" y="-14.7536" font-family="Georgia" font-size="14.00" fill="#000000">LoopControl</text>
</g>
<!-- CarpetReduce&#45;&gt;LoopControl -->
<g id="edge2" class="edge">
<title>CarpetReduce&#45;&gt;LoopControl</title>
<path fill="none" stroke="#000000" d="M113.2035,-72.2022C120.4693,-63.4832 129.3461,-52.8311 137.3012,-43.2849"/>
<polygon fill="#000000" stroke="#000000" points="139.9981,-45.5159 143.7112,-35.593 134.6205,-41.0346 139.9981,-45.5159"/>
</g>
</g>
</svg>
