<?xml version="1.0" encoding="UTF-8" standalone="no"?>
<!DOCTYPE svg PUBLIC "-//W3C//DTD SVG 1.1//EN"
 "http://www.w3.org/Graphics/SVG/1.1/DTD/svg11.dtd">
<!-- Generated by graphviz version 2.40.1 (20161225.0304)
 -->
<!-- Title: foo Pages: 1 -->
<svg width="381pt" height="116pt"
 viewBox="0.00 0.00 380.51 116.00" xmlns="http://www.w3.org/2000/svg" xmlns:xlink="http://www.w3.org/1999/xlink">
<g id="graph0" class="graph" transform="scale(1 1) rotate(0) translate(4 112)">
<title>foo</title>
<polygon fill="#ffffff" stroke="transparent" points="-4,4 -4,-112 376.5065,-112 376.5065,4 -4,4"/>
<!-- particle_tracerET -->
<g id="node1" class="node">
<title>particle_tracerET</title>
<ellipse fill="none" stroke="#000000" cx="193.4197" cy="-90" rx="84.2248" ry="18"/>
<text text-anchor="middle" x="193.4197" y="-86.7536" font-family="Georgia" font-size="14.00" fill="#000000">particle_tracerET</text>
</g>
<!-- CartGrid3D -->
<g id="node2" class="node">
<title>CartGrid3D</title>
<ellipse fill="none" stroke="#000000" cx="59.4197" cy="-18" rx="59.3394" ry="18"/>
<text text-anchor="middle" x="59.4197" y="-14.7536" font-family="Georgia" font-size="14.00" fill="#000000">CartGrid3D</text>
</g>
<!-- particle_tracerET&#45;&gt;CartGrid3D -->
<g id="edge1" class="edge">
<title>particle_tracerET&#45;&gt;CartGrid3D</title>
<path fill="none" stroke="#000000" d="M162.0026,-73.1192C142.8171,-62.8105 118.1477,-49.5554 97.8092,-38.6272"/>
<polygon fill="#000000" stroke="#000000" points="99.2701,-35.439 88.8045,-33.7889 95.9568,-41.6052 99.2701,-35.439"/>
</g>
<!-- HydroBase -->
<g id="node3" class="node">
<title>HydroBase</title>
<ellipse fill="none" stroke="#000000" cx="193.4197" cy="-18" rx="56.7165" ry="18"/>
<text text-anchor="middle" x="193.4197" y="-14.7536" font-family="Georgia" font-size="14.00" fill="#000000">HydroBase</text>
</g>
<!-- particle_tracerET&#45;&gt;HydroBase -->
<g id="edge2" class="edge">
<title>particle_tracerET&#45;&gt;HydroBase</title>
<path fill="none" stroke="#000000" d="M193.4197,-71.8314C193.4197,-64.131 193.4197,-54.9743 193.4197,-46.4166"/>
<polygon fill="#000000" stroke="#000000" points="196.9198,-46.4132 193.4197,-36.4133 189.9198,-46.4133 196.9198,-46.4132"/>
</g>
<!-- ADMBase -->
<g id="node4" class="node">
<title>ADMBase</title>
<ellipse fill="none" stroke="#000000" cx="320.4197" cy="-18" rx="52.1738" ry="18"/>
<text text-anchor="middle" x="320.4197" y="-14.7536" font-family="Georgia" font-size="14.00" fill="#000000">ADMBase</text>
</g>
<!-- particle_tracerET&#45;&gt;ADMBase -->
<g id="edge3" class="edge">
<title>particle_tracerET&#45;&gt;ADMBase</title>
<path fill="none" stroke="#000000" d="M223.1955,-73.1192C241.4235,-62.7852 264.8744,-49.4902 284.1775,-38.5467"/>
<polygon fill="#000000" stroke="#000000" points="286.0263,-41.522 292.9994,-33.5454 282.574,-35.4325 286.0263,-41.522"/>
</g>
</g>
</svg>
