<?xml version="1.0" encoding="UTF-8" standalone="no"?>
<!DOCTYPE svg PUBLIC "-//W3C//DTD SVG 1.1//EN"
 "http://www.w3.org/Graphics/SVG/1.1/DTD/svg11.dtd">
<!-- Generated by graphviz version 2.40.1 (20161225.0304)
 -->
<!-- Title: foo Pages: 1 -->
<svg width="508pt" height="116pt"
 viewBox="0.00 0.00 508.34 116.00" xmlns="http://www.w3.org/2000/svg" xmlns:xlink="http://www.w3.org/1999/xlink">
<g id="graph0" class="graph" transform="scale(1 1) rotate(0) translate(4 112)">
<title>foo</title>
<polygon fill="#ffffff" stroke="transparent" points="-4,4 -4,-112 504.3421,-112 504.3421,4 -4,4"/>
<!-- ADMAnalysis -->
<g id="node1" class="node">
<title>ADMAnalysis</title>
<ellipse fill="none" stroke="#000000" cx="263.0868" cy="-90" rx="67.1575" ry="18"/>
<text text-anchor="middle" x="263.0868" y="-86.7536" font-family="Georgia" font-size="14.00" fill="#000000">ADMAnalysis</text>
</g>
<!-- ADMBase -->
<g id="node2" class="node">
<title>ADMBase</title>
<ellipse fill="none" stroke="#000000" cx="52.0868" cy="-18" rx="52.1738" ry="18"/>
<text text-anchor="middle" x="52.0868" y="-14.7536" font-family="Georgia" font-size="14.00" fill="#000000">ADMBase</text>
</g>
<!-- ADMAnalysis&#45;&gt;ADMBase -->
<g id="edge1" class="edge">
<title>ADMAnalysis&#45;&gt;ADMBase</title>
<path fill="none" stroke="#000000" d="M221.4,-75.7751C186.1203,-63.7365 135.5904,-46.4941 98.9222,-33.9818"/>
<polygon fill="#000000" stroke="#000000" points="100.0394,-30.6649 89.4449,-30.7478 97.7787,-37.2898 100.0394,-30.6649"/>
</g>
<!-- StaticConformal -->
<g id="node3" class="node">
<title>StaticConformal</title>
<ellipse fill="none" stroke="#000000" cx="200.0868" cy="-18" rx="78.083" ry="18"/>
<text text-anchor="middle" x="200.0868" y="-14.7536" font-family="Georgia" font-size="14.00" fill="#000000">StaticConformal</text>
</g>
<!-- ADMAnalysis&#45;&gt;StaticConformal -->
<g id="edge2" class="edge">
<title>ADMAnalysis&#45;&gt;StaticConformal</title>
<path fill="none" stroke="#000000" d="M247.5138,-72.2022C239.9416,-63.5483 230.703,-52.99 222.3983,-43.4988"/>
<polygon fill="#000000" stroke="#000000" points="224.9182,-41.0636 215.6991,-35.8425 219.6501,-45.6731 224.9182,-41.0636"/>
</g>
<!-- Grid -->
<g id="node4" class="node">
<title>Grid</title>
<ellipse fill="none" stroke="#000000" cx="326.0868" cy="-18" rx="29.3875" ry="18"/>
<text text-anchor="middle" x="326.0868" y="-14.7536" font-family="Georgia" font-size="14.00" fill="#000000">Grid</text>
</g>
<!-- ADMAnalysis&#45;&gt;Grid -->
<g id="edge3" class="edge">
<title>ADMAnalysis&#45;&gt;Grid</title>
<path fill="none" stroke="#000000" d="M278.6599,-72.2022C286.7103,-63.0017 296.6442,-51.6487 305.337,-41.7141"/>
<polygon fill="#000000" stroke="#000000" points="308.0317,-43.9495 311.9827,-34.119 302.7636,-39.34 308.0317,-43.9495"/>
</g>
<!-- ADMMacros -->
<g id="node5" class="node">
<title>ADMMacros</title>
<ellipse fill="none" stroke="#000000" cx="437.0868" cy="-18" rx="63.0114" ry="18"/>
<text text-anchor="middle" x="437.0868" y="-14.7536" font-family="Georgia" font-size="14.00" fill="#000000">ADMMacros</text>
</g>
<!-- ADMAnalysis&#45;&gt;ADMMacros -->
<g id="edge4" class="edge">
<title>ADMAnalysis&#45;&gt;ADMMacros</title>
<path fill="none" stroke="#000000" d="M299.9878,-74.7307C326.786,-63.6417 363.2046,-48.572 391.7713,-36.7513"/>
<polygon fill="#000000" stroke="#000000" points="393.2309,-39.9351 401.1329,-32.8775 390.5544,-33.467 393.2309,-39.9351"/>
</g>
</g>
</svg>
