<?xml version="1.0" encoding="UTF-8" standalone="no"?>
<!DOCTYPE svg PUBLIC "-//W3C//DTD SVG 1.1//EN"
 "http://www.w3.org/Graphics/SVG/1.1/DTD/svg11.dtd">
<!-- Generated by graphviz version 2.40.1 (20161225.0304)
 -->
<!-- Title: foo Pages: 1 -->
<svg width="222pt" height="116pt"
 viewBox="0.00 0.00 221.79 116.00" xmlns="http://www.w3.org/2000/svg" xmlns:xlink="http://www.w3.org/1999/xlink">
<g id="graph0" class="graph" transform="scale(1 1) rotate(0) translate(4 112)">
<title>foo</title>
<polygon fill="#ffffff" stroke="transparent" points="-4,4 -4,-112 217.7917,-112 217.7917,4 -4,4"/>
<!-- Coordinates -->
<g id="node1" class="node">
<title>Coordinates</title>
<ellipse fill="none" stroke="#000000" cx="117.4197" cy="-90" rx="60.6286" ry="18"/>
<text text-anchor="middle" x="117.4197" y="-86.7536" font-family="Georgia" font-size="14.00" fill="#000000">Coordinates</text>
</g>
<!-- CartGrid3D -->
<g id="node2" class="node">
<title>CartGrid3D</title>
<ellipse fill="none" stroke="#000000" cx="59.4197" cy="-18" rx="59.3394" ry="18"/>
<text text-anchor="middle" x="59.4197" y="-14.7536" font-family="Georgia" font-size="14.00" fill="#000000">CartGrid3D</text>
</g>
<!-- Coordinates&#45;&gt;CartGrid3D -->
<g id="edge1" class="edge">
<title>Coordinates&#45;&gt;CartGrid3D</title>
<path fill="none" stroke="#000000" d="M103.0826,-72.2022C96.1292,-63.5704 87.6495,-53.0439 80.0191,-43.5717"/>
<polygon fill="#000000" stroke="#000000" points="82.5908,-41.1849 73.5918,-35.593 77.1395,-45.5763 82.5908,-41.1849"/>
</g>
<!-- Carpet -->
<g id="node3" class="node">
<title>Carpet</title>
<ellipse fill="none" stroke="#000000" cx="175.4197" cy="-18" rx="38.2445" ry="18"/>
<text text-anchor="middle" x="175.4197" y="-14.7536" font-family="Georgia" font-size="14.00" fill="#000000">Carpet</text>
</g>
<!-- Coordinates&#45;&gt;Carpet -->
<g id="edge2" class="edge">
<title>Coordinates&#45;&gt;Carpet</title>
<path fill="none" stroke="#000000" d="M131.7568,-72.2022C138.814,-63.4416 147.4433,-52.7293 155.1614,-43.1482"/>
<polygon fill="#000000" stroke="#000000" points="158.0992,-45.0805 161.6469,-35.0972 152.6479,-40.6891 158.0992,-45.0805"/>
</g>
</g>
</svg>
