<?xml version="1.0" encoding="UTF-8" standalone="no"?>
<!DOCTYPE svg PUBLIC "-//W3C//DTD SVG 1.1//EN"
 "http://www.w3.org/Graphics/SVG/1.1/DTD/svg11.dtd">
<!-- Generated by graphviz version 2.40.1 (20161225.0304)
 -->
<!-- Title: foo Pages: 1 -->
<svg width="242pt" height="116pt"
 viewBox="0.00 0.00 241.94 116.00" xmlns="http://www.w3.org/2000/svg" xmlns:xlink="http://www.w3.org/1999/xlink">
<g id="graph0" class="graph" transform="scale(1 1) rotate(0) translate(4 112)">
<title>foo</title>
<polygon fill="#ffffff" stroke="transparent" points="-4,4 -4,-112 237.9407,-112 237.9407,4 -4,4"/>
<!-- CarpetMask -->
<g id="node1" class="node">
<title>CarpetMask</title>
<ellipse fill="none" stroke="#000000" cx="90.4231" cy="-90" rx="60.665" ry="18"/>
<text text-anchor="middle" x="90.4231" y="-86.7536" font-family="Georgia" font-size="14.00" fill="#000000">CarpetMask</text>
</g>
<!-- grid -->
<g id="node2" class="node">
<title>grid</title>
<ellipse fill="none" stroke="#000000" cx="27.4231" cy="-18" rx="27.3463" ry="18"/>
<text text-anchor="middle" x="27.4231" y="-14.7536" font-family="Georgia" font-size="14.00" fill="#000000">grid</text>
</g>
<!-- CarpetMask&#45;&gt;grid -->
<g id="edge1" class="edge">
<title>CarpetMask&#45;&gt;grid</title>
<path fill="none" stroke="#000000" d="M75.1725,-72.5708C67.0119,-63.2444 56.8476,-51.6281 47.9969,-41.513"/>
<polygon fill="#000000" stroke="#000000" points="50.4629,-39.0162 41.2438,-33.7951 45.1949,-43.6257 50.4629,-39.0162"/>
</g>
<!-- SphericalSurface -->
<g id="node3" class="node">
<title>SphericalSurface</title>
<ellipse fill="none" stroke="#000000" cx="153.4231" cy="-18" rx="80.5352" ry="18"/>
<text text-anchor="middle" x="153.4231" y="-14.7536" font-family="Georgia" font-size="14.00" fill="#000000">SphericalSurface</text>
</g>
<!-- CarpetMask&#45;&gt;SphericalSurface -->
<g id="edge2" class="edge">
<title>CarpetMask&#45;&gt;SphericalSurface</title>
<path fill="none" stroke="#000000" d="M105.6736,-72.5708C113.2982,-63.857 122.6719,-53.1441 131.0892,-43.5244"/>
<polygon fill="#000000" stroke="#000000" points="133.9242,-45.5994 137.8753,-35.7689 128.6562,-40.9899 133.9242,-45.5994"/>
</g>
</g>
</svg>
