<?xml version="1.0" encoding="UTF-8" standalone="no"?>
<!DOCTYPE svg PUBLIC "-//W3C//DTD SVG 1.1//EN"
 "http://www.w3.org/Graphics/SVG/1.1/DTD/svg11.dtd">
<!-- Generated by graphviz version 2.40.1 (20161225.0304)
 -->
<!-- Title: foo Pages: 1 -->
<svg width="564pt" height="116pt"
 viewBox="0.00 0.00 564.34 116.00" xmlns="http://www.w3.org/2000/svg" xmlns:xlink="http://www.w3.org/1999/xlink">
<g id="graph0" class="graph" transform="scale(1 1) rotate(0) translate(4 112)">
<title>foo</title>
<polygon fill="#ffffff" stroke="transparent" points="-4,4 -4,-112 560.3441,-112 560.3441,4 -4,4"/>
<!-- ADMMass -->
<g id="node1" class="node">
<title>ADMMass</title>
<ellipse fill="none" stroke="#000000" cx="265.0868" cy="-90" rx="54.3343" ry="18"/>
<text text-anchor="middle" x="265.0868" y="-86.7536" font-family="Georgia" font-size="14.00" fill="#000000">ADMMass</text>
</g>
<!-- ADMBase -->
<g id="node2" class="node">
<title>ADMBase</title>
<ellipse fill="none" stroke="#000000" cx="52.0868" cy="-18" rx="52.1738" ry="18"/>
<text text-anchor="middle" x="52.0868" y="-14.7536" font-family="Georgia" font-size="14.00" fill="#000000">ADMBase</text>
</g>
<!-- ADMMass&#45;&gt;ADMBase -->
<g id="edge1" class="edge">
<title>ADMMass&#45;&gt;ADMBase</title>
<path fill="none" stroke="#000000" d="M227.0067,-77.1278C191.3071,-65.0604 137.8203,-46.9803 99.3965,-33.992"/>
<polygon fill="#000000" stroke="#000000" points="100.0742,-30.5266 89.48,-30.6399 97.8326,-37.158 100.0742,-30.5266"/>
</g>
<!-- ADMMacros -->
<g id="node3" class="node">
<title>ADMMacros</title>
<ellipse fill="none" stroke="#000000" cx="185.0868" cy="-18" rx="63.0114" ry="18"/>
<text text-anchor="middle" x="185.0868" y="-14.7536" font-family="Georgia" font-size="14.00" fill="#000000">ADMMacros</text>
</g>
<!-- ADMMass&#45;&gt;ADMMacros -->
<g id="edge2" class="edge">
<title>ADMMass&#45;&gt;ADMMacros</title>
<path fill="none" stroke="#000000" d="M246.1279,-72.937C235.8415,-63.6792 222.9598,-52.0857 211.6845,-41.9379"/>
<polygon fill="#000000" stroke="#000000" points="213.9612,-39.2782 204.1869,-35.19 209.2784,-44.4813 213.9612,-39.2782"/>
</g>
<!-- StaticConformal -->
<g id="node4" class="node">
<title>StaticConformal</title>
<ellipse fill="none" stroke="#000000" cx="345.0868" cy="-18" rx="78.083" ry="18"/>
<text text-anchor="middle" x="345.0868" y="-14.7536" font-family="Georgia" font-size="14.00" fill="#000000">StaticConformal</text>
</g>
<!-- ADMMass&#45;&gt;StaticConformal -->
<g id="edge3" class="edge">
<title>ADMMass&#45;&gt;StaticConformal</title>
<path fill="none" stroke="#000000" d="M284.0457,-72.937C294.2571,-63.7468 307.0259,-52.2548 318.242,-42.1604"/>
<polygon fill="#000000" stroke="#000000" points="320.6167,-44.7319 325.7083,-35.4407 315.9339,-39.5288 320.6167,-44.7319"/>
</g>
<!-- SpaceMask -->
<g id="node5" class="node">
<title>SpaceMask</title>
<ellipse fill="none" stroke="#000000" cx="499.0868" cy="-18" rx="57.0156" ry="18"/>
<text text-anchor="middle" x="499.0868" y="-14.7536" font-family="Georgia" font-size="14.00" fill="#000000">SpaceMask</text>
</g>
<!-- ADMMass&#45;&gt;SpaceMask -->
<g id="edge4" class="edge">
<title>ADMMass&#45;&gt;SpaceMask</title>
<path fill="none" stroke="#000000" d="M305.047,-77.7046C344.6468,-65.52 405.4425,-46.8137 448.4135,-33.5918"/>
<polygon fill="#000000" stroke="#000000" points="449.5838,-36.8937 458.1122,-30.6076 447.5251,-30.2033 449.5838,-36.8937"/>
</g>
</g>
</svg>
