<?xml version="1.0" encoding="UTF-8" standalone="no"?>
<!DOCTYPE svg PUBLIC "-//W3C//DTD SVG 1.1//EN"
 "http://www.w3.org/Graphics/SVG/1.1/DTD/svg11.dtd">
<!-- Generated by graphviz version 2.40.1 (20161225.0304)
 -->
<!-- Title: foo Pages: 1 -->
<svg width="286pt" height="116pt"
 viewBox="0.00 0.00 286.38 116.00" xmlns="http://www.w3.org/2000/svg" xmlns:xlink="http://www.w3.org/1999/xlink">
<g id="graph0" class="graph" transform="scale(1 1) rotate(0) translate(4 112)">
<title>foo</title>
<polygon fill="#ffffff" stroke="transparent" points="-4,4 -4,-112 282.3781,-112 282.3781,4 -4,4"/>
<!-- TwoPunctures -->
<g id="node1" class="node">
<title>TwoPunctures</title>
<ellipse fill="none" stroke="#000000" cx="126.0868" cy="-90" rx="70.1919" ry="18"/>
<text text-anchor="middle" x="126.0868" y="-86.7536" font-family="Georgia" font-size="14.00" fill="#000000">TwoPunctures</text>
</g>
<!-- ADMBase -->
<g id="node2" class="node">
<title>ADMBase</title>
<ellipse fill="none" stroke="#000000" cx="52.0868" cy="-18" rx="52.1738" ry="18"/>
<text text-anchor="middle" x="52.0868" y="-14.7536" font-family="Georgia" font-size="14.00" fill="#000000">ADMBase</text>
</g>
<!-- TwoPunctures&#45;&gt;ADMBase -->
<g id="edge1" class="edge">
<title>TwoPunctures&#45;&gt;ADMBase</title>
<path fill="none" stroke="#000000" d="M108.1735,-72.5708C98.7424,-63.3946 87.033,-52.0017 76.7565,-42.0029"/>
<polygon fill="#000000" stroke="#000000" points="79.1879,-39.4853 69.5799,-35.0202 74.3064,-44.5024 79.1879,-39.4853"/>
</g>
<!-- StaticConformal -->
<g id="node3" class="node">
<title>StaticConformal</title>
<ellipse fill="none" stroke="#000000" cx="200.0868" cy="-18" rx="78.083" ry="18"/>
<text text-anchor="middle" x="200.0868" y="-14.7536" font-family="Georgia" font-size="14.00" fill="#000000">StaticConformal</text>
</g>
<!-- TwoPunctures&#45;&gt;StaticConformal -->
<g id="edge2" class="edge">
<title>TwoPunctures&#45;&gt;StaticConformal</title>
<path fill="none" stroke="#000000" d="M144.0002,-72.5708C153.2033,-63.6164 164.5761,-52.551 174.6697,-42.7302"/>
<polygon fill="#000000" stroke="#000000" points="177.3554,-45.0004 182.082,-35.5182 172.4739,-39.9833 177.3554,-45.0004"/>
</g>
</g>
</svg>
