<?xml version="1.0" encoding="UTF-8" standalone="no"?>
<!DOCTYPE svg PUBLIC "-//W3C//DTD SVG 1.1//EN"
 "http://www.w3.org/Graphics/SVG/1.1/DTD/svg11.dtd">
<!-- Generated by graphviz version 2.40.1 (20161225.0304)
 -->
<!-- Title: foo Pages: 1 -->
<svg width="330pt" height="116pt"
 viewBox="0.00 0.00 329.94 116.00" xmlns="http://www.w3.org/2000/svg" xmlns:xlink="http://www.w3.org/1999/xlink">
<g id="graph0" class="graph" transform="scale(1 1) rotate(0) translate(4 112)">
<title>foo</title>
<polygon fill="#ffffff" stroke="transparent" points="-4,4 -4,-112 325.9377,-112 325.9377,4 -4,4"/>
<!-- CarpetTracker -->
<g id="node1" class="node">
<title>CarpetTracker</title>
<ellipse fill="none" stroke="#000000" cx="165.5176" cy="-90" rx="70.1919" ry="18"/>
<text text-anchor="middle" x="165.5176" y="-86.7536" font-family="Georgia" font-size="14.00" fill="#000000">CarpetTracker</text>
</g>
<!-- SphericalSurface -->
<g id="node2" class="node">
<title>SphericalSurface</title>
<ellipse fill="none" stroke="#000000" cx="80.5176" cy="-18" rx="80.5352" ry="18"/>
<text text-anchor="middle" x="80.5176" y="-14.7536" font-family="Georgia" font-size="14.00" fill="#000000">SphericalSurface</text>
</g>
<!-- CarpetTracker&#45;&gt;SphericalSurface -->
<g id="edge1" class="edge">
<title>CarpetTracker&#45;&gt;SphericalSurface</title>
<path fill="none" stroke="#000000" d="M144.9415,-72.5708C134.163,-63.4408 120.7937,-52.1163 109.0326,-42.1539"/>
<polygon fill="#000000" stroke="#000000" points="111.0915,-39.3111 101.1988,-35.5182 106.5671,-44.6524 111.0915,-39.3111"/>
</g>
<!-- CarpetRegrid2 -->
<g id="node3" class="node">
<title>CarpetRegrid2</title>
<ellipse fill="none" stroke="#000000" cx="250.5176" cy="-18" rx="71.3403" ry="18"/>
<text text-anchor="middle" x="250.5176" y="-14.7536" font-family="Georgia" font-size="14.00" fill="#000000">CarpetRegrid2</text>
</g>
<!-- CarpetTracker&#45;&gt;CarpetRegrid2 -->
<g id="edge2" class="edge">
<title>CarpetTracker&#45;&gt;CarpetRegrid2</title>
<path fill="none" stroke="#000000" d="M186.0937,-72.5708C196.9521,-63.3732 210.4397,-51.9484 222.2636,-41.9328"/>
<polygon fill="#000000" stroke="#000000" points="224.7627,-44.4028 230.131,-35.2687 220.2383,-39.0615 224.7627,-44.4028"/>
</g>
</g>
</svg>
