<?xml version="1.0" encoding="UTF-8" standalone="no"?>
<!DOCTYPE svg PUBLIC "-//W3C//DTD SVG 1.1//EN"
 "http://www.w3.org/Graphics/SVG/1.1/DTD/svg11.dtd">
<!-- Generated by graphviz version 2.40.1 (20161225.0304)
 -->
<!-- Title: foo Pages: 1 -->
<svg width="444pt" height="116pt"
 viewBox="0.00 0.00 444.28 116.00" xmlns="http://www.w3.org/2000/svg" xmlns:xlink="http://www.w3.org/1999/xlink">
<g id="graph0" class="graph" transform="scale(1 1) rotate(0) translate(4 112)">
<title>foo</title>
<polygon fill="#ffffff" stroke="transparent" points="-4,4 -4,-112 440.2772,-112 440.2772,4 -4,4"/>
<!-- TmunuBase -->
<g id="node1" class="node">
<title>TmunuBase</title>
<ellipse fill="none" stroke="#000000" cx="200.0868" cy="-90" rx="60.4057" ry="18"/>
<text text-anchor="middle" x="200.0868" y="-86.7536" font-family="Georgia" font-size="14.00" fill="#000000">TmunuBase</text>
</g>
<!-- ADMBase -->
<g id="node2" class="node">
<title>ADMBase</title>
<ellipse fill="none" stroke="#000000" cx="52.0868" cy="-18" rx="52.1738" ry="18"/>
<text text-anchor="middle" x="52.0868" y="-14.7536" font-family="Georgia" font-size="14.00" fill="#000000">ADMBase</text>
</g>
<!-- TmunuBase&#45;&gt;ADMBase -->
<g id="edge1" class="edge">
<title>TmunuBase&#45;&gt;ADMBase</title>
<path fill="none" stroke="#000000" d="M168.3371,-74.5542C145.8423,-63.6108 115.5142,-48.8566 91.4756,-37.1621"/>
<polygon fill="#000000" stroke="#000000" points="92.7918,-33.9102 82.2683,-32.6829 89.7295,-40.2049 92.7918,-33.9102"/>
</g>
<!-- StaticConformal -->
<g id="node3" class="node">
<title>StaticConformal</title>
<ellipse fill="none" stroke="#000000" cx="200.0868" cy="-18" rx="78.083" ry="18"/>
<text text-anchor="middle" x="200.0868" y="-14.7536" font-family="Georgia" font-size="14.00" fill="#000000">StaticConformal</text>
</g>
<!-- TmunuBase&#45;&gt;StaticConformal -->
<g id="edge2" class="edge">
<title>TmunuBase&#45;&gt;StaticConformal</title>
<path fill="none" stroke="#000000" d="M200.0868,-71.8314C200.0868,-64.131 200.0868,-54.9743 200.0868,-46.4166"/>
<polygon fill="#000000" stroke="#000000" points="203.5869,-46.4132 200.0868,-36.4133 196.5869,-46.4133 203.5869,-46.4132"/>
</g>
<!-- ADMCoupling -->
<g id="node4" class="node">
<title>ADMCoupling</title>
<ellipse fill="none" stroke="#000000" cx="366.0868" cy="-18" rx="70.3812" ry="18"/>
<text text-anchor="middle" x="366.0868" y="-14.7536" font-family="Georgia" font-size="14.00" fill="#000000">ADMCoupling</text>
</g>
<!-- TmunuBase&#45;&gt;ADMCoupling -->
<g id="edge3" class="edge">
<title>TmunuBase&#45;&gt;ADMCoupling</title>
<path fill="none" stroke="#000000" d="M234.4821,-75.0816C259.5423,-64.2121 293.7299,-49.3837 320.9792,-37.5647"/>
<polygon fill="#000000" stroke="#000000" points="322.5205,-40.7114 330.302,-33.5211 319.735,-34.2894 322.5205,-40.7114"/>
</g>
</g>
</svg>
