<?xml version="1.0" encoding="UTF-8" standalone="no"?>
<!DOCTYPE svg PUBLIC "-//W3C//DTD SVG 1.1//EN"
 "http://www.w3.org/Graphics/SVG/1.1/DTD/svg11.dtd">
<!-- Generated by graphviz version 2.40.1 (20161225.0304)
 -->
<!-- Title: foo Pages: 1 -->
<svg width="478pt" height="116pt"
 viewBox="0.00 0.00 477.84 116.00" xmlns="http://www.w3.org/2000/svg" xmlns:xlink="http://www.w3.org/1999/xlink">
<g id="graph0" class="graph" transform="scale(1 1) rotate(0) translate(4 112)">
<title>foo</title>
<polygon fill="#ffffff" stroke="transparent" points="-4,4 -4,-112 473.8432,-112 473.8432,4 -4,4"/>
<!-- VolumeIntegrals_GRMHD -->
<g id="node1" class="node">
<title>VolumeIntegrals_GRMHD</title>
<ellipse fill="none" stroke="#000000" cx="192.4231" cy="-90" rx="122.5246" ry="18"/>
<text text-anchor="middle" x="192.4231" y="-86.7536" font-family="Georgia" font-size="14.00" fill="#000000">VolumeIntegrals_GRMHD</text>
</g>
<!-- grid -->
<g id="node2" class="node">
<title>grid</title>
<ellipse fill="none" stroke="#000000" cx="27.4231" cy="-18" rx="27.3463" ry="18"/>
<text text-anchor="middle" x="27.4231" y="-14.7536" font-family="Georgia" font-size="14.00" fill="#000000">grid</text>
</g>
<!-- VolumeIntegrals_GRMHD&#45;&gt;grid -->
<g id="edge1" class="edge">
<title>VolumeIntegrals_GRMHD&#45;&gt;grid</title>
<path fill="none" stroke="#000000" d="M149.9911,-73.0766C124.6768,-62.7728 92.0014,-49.1082 63.4231,-36 61.8511,-35.279 60.2466,-34.5291 58.6305,-33.7627"/>
<polygon fill="#000000" stroke="#000000" points="59.919,-30.4977 49.3946,-29.2786 56.8617,-36.7948 59.919,-30.4977"/>
</g>
<!-- HydroBase -->
<g id="node3" class="node">
<title>HydroBase</title>
<ellipse fill="none" stroke="#000000" cx="129.4231" cy="-18" rx="56.7165" ry="18"/>
<text text-anchor="middle" x="129.4231" y="-14.7536" font-family="Georgia" font-size="14.00" fill="#000000">HydroBase</text>
</g>
<!-- VolumeIntegrals_GRMHD&#45;&gt;HydroBase -->
<g id="edge2" class="edge">
<title>VolumeIntegrals_GRMHD&#45;&gt;HydroBase</title>
<path fill="none" stroke="#000000" d="M176.5255,-71.8314C168.8934,-63.109 159.6266,-52.5183 151.3382,-43.0459"/>
<polygon fill="#000000" stroke="#000000" points="153.8827,-40.6387 144.6636,-35.4177 148.6146,-45.2483 153.8827,-40.6387"/>
</g>
<!-- ADMBase -->
<g id="node4" class="node">
<title>ADMBase</title>
<ellipse fill="none" stroke="#000000" cx="256.4231" cy="-18" rx="52.1738" ry="18"/>
<text text-anchor="middle" x="256.4231" y="-14.7536" font-family="Georgia" font-size="14.00" fill="#000000">ADMBase</text>
</g>
<!-- VolumeIntegrals_GRMHD&#45;&gt;ADMBase -->
<g id="edge3" class="edge">
<title>VolumeIntegrals_GRMHD&#45;&gt;ADMBase</title>
<path fill="none" stroke="#000000" d="M208.573,-71.8314C216.3262,-63.109 225.7401,-52.5183 234.16,-43.0459"/>
<polygon fill="#000000" stroke="#000000" points="236.9129,-45.2171 240.9406,-35.4177 231.681,-40.5665 236.9129,-45.2171"/>
</g>
<!-- CarpetRegrid2 -->
<g id="node5" class="node">
<title>CarpetRegrid2</title>
<ellipse fill="none" stroke="#000000" cx="398.4231" cy="-18" rx="71.3403" ry="18"/>
<text text-anchor="middle" x="398.4231" y="-14.7536" font-family="Georgia" font-size="14.00" fill="#000000">CarpetRegrid2</text>
</g>
<!-- VolumeIntegrals_GRMHD&#45;&gt;CarpetRegrid2 -->
<g id="edge4" class="edge">
<title>VolumeIntegrals_GRMHD&#45;&gt;CarpetRegrid2</title>
<path fill="none" stroke="#000000" d="M239.9423,-73.3913C271.8162,-62.2509 313.7937,-47.5792 346.5384,-36.1345"/>
<polygon fill="#000000" stroke="#000000" points="348.0975,-39.2972 356.3827,-32.6937 345.7878,-32.6892 348.0975,-39.2972"/>
</g>
</g>
</svg>
