<?xml version="1.0" encoding="UTF-8" standalone="no"?>
<!DOCTYPE svg PUBLIC "-//W3C//DTD SVG 1.1//EN"
 "http://www.w3.org/Graphics/SVG/1.1/DTD/svg11.dtd">
<!-- Generated by graphviz version 2.40.1 (20161225.0304)
 -->
<!-- Title: foo Pages: 1 -->
<svg width="634pt" height="188pt"
 viewBox="0.00 0.00 633.69 188.00" xmlns="http://www.w3.org/2000/svg" xmlns:xlink="http://www.w3.org/1999/xlink">
<g id="graph0" class="graph" transform="scale(1 1) rotate(0) translate(4 184)">
<title>foo</title>
<polygon fill="#ffffff" stroke="transparent" points="-4,4 -4,-184 629.695,-184 629.695,4 -4,4"/>
<!-- ID_converter_ILGRMHD -->
<g id="node1" class="node">
<title>ID_converter_ILGRMHD</title>
<ellipse fill="none" stroke="#000000" cx="178.0868" cy="-162" rx="118.6372" ry="18"/>
<text text-anchor="middle" x="178.0868" y="-158.7536" font-family="Georgia" font-size="14.00" fill="#000000">ID_converter_ILGRMHD</text>
</g>
<!-- IllinoisGRMHD -->
<g id="node2" class="node">
<title>IllinoisGRMHD</title>
<ellipse fill="none" stroke="#000000" cx="300.0868" cy="-90" rx="76.4983" ry="18"/>
<text text-anchor="middle" x="300.0868" y="-86.7536" font-family="Georgia" font-size="14.00" fill="#000000">IllinoisGRMHD</text>
</g>
<!-- ID_converter_ILGRMHD&#45;&gt;IllinoisGRMHD -->
<g id="edge1" class="edge">
<title>ID_converter_ILGRMHD&#45;&gt;IllinoisGRMHD</title>
<path fill="none" stroke="#000000" d="M207.9314,-144.3868C224.391,-134.6729 244.9875,-122.5176 262.5321,-112.1634"/>
<polygon fill="#000000" stroke="#000000" points="264.5573,-115.0324 271.3905,-106.9355 260.9995,-109.0039 264.5573,-115.0324"/>
</g>
<!-- ADMBase -->
<g id="node4" class="node">
<title>ADMBase</title>
<ellipse fill="none" stroke="#000000" cx="52.0868" cy="-18" rx="52.1738" ry="18"/>
<text text-anchor="middle" x="52.0868" y="-14.7536" font-family="Georgia" font-size="14.00" fill="#000000">ADMBase</text>
</g>
<!-- IllinoisGRMHD&#45;&gt;ADMBase -->
<g id="edge3" class="edge">
<title>IllinoisGRMHD&#45;&gt;ADMBase</title>
<path fill="none" stroke="#000000" d="M251.2412,-75.979C213.4969,-65.1242 159.9596,-49.6832 113.0868,-36 109.3191,-34.9001 105.4216,-33.7586 101.503,-32.6083"/>
<polygon fill="#000000" stroke="#000000" points="102.362,-29.2128 91.7808,-29.7493 100.3871,-35.9284 102.362,-29.2128"/>
</g>
<!-- Boundary -->
<g id="node5" class="node">
<title>Boundary</title>
<ellipse fill="none" stroke="#000000" cx="173.0868" cy="-18" rx="51.1473" ry="18"/>
<text text-anchor="middle" x="173.0868" y="-14.7536" font-family="Georgia" font-size="14.00" fill="#000000">Boundary</text>
</g>
<!-- IllinoisGRMHD&#45;&gt;Boundary -->
<g id="edge4" class="edge">
<title>IllinoisGRMHD&#45;&gt;Boundary</title>
<path fill="none" stroke="#000000" d="M270.6313,-73.3008C252.2866,-62.9007 228.56,-49.4494 209.1006,-38.4173"/>
<polygon fill="#000000" stroke="#000000" points="210.6401,-35.2667 200.2147,-33.3796 207.1877,-41.3562 210.6401,-35.2667"/>
</g>
<!-- SpaceMask -->
<g id="node6" class="node">
<title>SpaceMask</title>
<ellipse fill="none" stroke="#000000" cx="300.0868" cy="-18" rx="57.0156" ry="18"/>
<text text-anchor="middle" x="300.0868" y="-14.7536" font-family="Georgia" font-size="14.00" fill="#000000">SpaceMask</text>
</g>
<!-- IllinoisGRMHD&#45;&gt;SpaceMask -->
<g id="edge5" class="edge">
<title>IllinoisGRMHD&#45;&gt;SpaceMask</title>
<path fill="none" stroke="#000000" d="M300.0868,-71.8314C300.0868,-64.131 300.0868,-54.9743 300.0868,-46.4166"/>
<polygon fill="#000000" stroke="#000000" points="303.5869,-46.4132 300.0868,-36.4133 296.5869,-46.4133 303.5869,-46.4132"/>
</g>
<!-- Tmunubase -->
<g id="node7" class="node">
<title>Tmunubase</title>
<ellipse fill="none" stroke="#000000" cx="435.0868" cy="-18" rx="59.6503" ry="18"/>
<text text-anchor="middle" x="435.0868" y="-14.7536" font-family="Georgia" font-size="14.00" fill="#000000">Tmunubase</text>
</g>
<!-- IllinoisGRMHD&#45;&gt;Tmunubase -->
<g id="edge6" class="edge">
<title>IllinoisGRMHD&#45;&gt;Tmunubase</title>
<path fill="none" stroke="#000000" d="M331.0586,-73.4817C350.5879,-63.0661 375.9551,-49.5369 396.7503,-38.4462"/>
<polygon fill="#000000" stroke="#000000" points="398.4717,-41.4948 405.6482,-33.7006 395.1775,-35.3183 398.4717,-41.4948"/>
</g>
<!-- HydroBase -->
<g id="node8" class="node">
<title>HydroBase</title>
<ellipse fill="none" stroke="#000000" cx="569.0868" cy="-18" rx="56.7165" ry="18"/>
<text text-anchor="middle" x="569.0868" y="-14.7536" font-family="Georgia" font-size="14.00" fill="#000000">HydroBase</text>
</g>
<!-- IllinoisGRMHD&#45;&gt;HydroBase -->
<g id="edge7" class="edge">
<title>IllinoisGRMHD&#45;&gt;HydroBase</title>
<path fill="none" stroke="#000000" d="M351.6925,-76.5131C392.9605,-65.6861 452.2804,-50.0294 504.0868,-36 508.1557,-34.8981 512.3655,-33.7502 516.5963,-32.591"/>
<polygon fill="#000000" stroke="#000000" points="517.7353,-35.9078 526.4496,-29.8819 515.8795,-29.1583 517.7353,-35.9078"/>
</g>
<!-- convert_to_HydroBase -->
<g id="node3" class="node">
<title>convert_to_HydroBase</title>
<ellipse fill="none" stroke="#000000" cx="423.0868" cy="-162" rx="108.0041" ry="18"/>
<text text-anchor="middle" x="423.0868" y="-158.7536" font-family="Georgia" font-size="14.00" fill="#000000">convert_to_HydroBase</text>
</g>
<!-- convert_to_HydroBase&#45;&gt;IllinoisGRMHD -->
<g id="edge2" class="edge">
<title>convert_to_HydroBase&#45;&gt;IllinoisGRMHD</title>
<path fill="none" stroke="#000000" d="M393.312,-144.5708C376.6017,-134.7892 355.5883,-122.4887 337.7437,-112.0431"/>
<polygon fill="#000000" stroke="#000000" points="339.1389,-108.8042 328.7406,-106.7729 335.6026,-114.8453 339.1389,-108.8042"/>
</g>
</g>
</svg>
