<?xml version="1.0" encoding="UTF-8" standalone="no"?>
<!DOCTYPE svg PUBLIC "-//W3C//DTD SVG 1.1//EN"
 "http://www.w3.org/Graphics/SVG/1.1/DTD/svg11.dtd">
<!-- Generated by graphviz version 2.40.1 (20161225.0304)
 -->
<!-- Title: foo Pages: 1 -->
<svg width="381pt" height="116pt"
 viewBox="0.00 0.00 381.03 116.00" xmlns="http://www.w3.org/2000/svg" xmlns:xlink="http://www.w3.org/1999/xlink">
<g id="graph0" class="graph" transform="scale(1 1) rotate(0) translate(4 112)">
<title>foo</title>
<polygon fill="#ffffff" stroke="transparent" points="-4,4 -4,-112 377.0278,-112 377.0278,4 -4,4"/>
<!-- Seed_Magnetic_Fields_BNS -->
<g id="node1" class="node">
<title>Seed_Magnetic_Fields_BNS</title>
<ellipse fill="none" stroke="#000000" cx="189.4197" cy="-90" rx="130.3606" ry="18"/>
<text text-anchor="middle" x="189.4197" y="-86.7536" font-family="Georgia" font-size="14.00" fill="#000000">Seed_Magnetic_Fields_BNS</text>
</g>
<!-- CartGrid3D -->
<g id="node2" class="node">
<title>CartGrid3D</title>
<ellipse fill="none" stroke="#000000" cx="59.4197" cy="-18" rx="59.3394" ry="18"/>
<text text-anchor="middle" x="59.4197" y="-14.7536" font-family="Georgia" font-size="14.00" fill="#000000">CartGrid3D</text>
</g>
<!-- Seed_Magnetic_Fields_BNS&#45;&gt;CartGrid3D -->
<g id="edge1" class="edge">
<title>Seed_Magnetic_Fields_BNS&#45;&gt;CartGrid3D</title>
<path fill="none" stroke="#000000" d="M157.6181,-72.3868C139.3187,-62.2517 116.2205,-49.4589 97.0241,-38.8271"/>
<polygon fill="#000000" stroke="#000000" points="98.6755,-35.7408 88.2318,-33.9575 95.284,-41.8643 98.6755,-35.7408"/>
</g>
<!-- ADMBase -->
<g id="node3" class="node">
<title>ADMBase</title>
<ellipse fill="none" stroke="#000000" cx="189.4197" cy="-18" rx="52.1738" ry="18"/>
<text text-anchor="middle" x="189.4197" y="-14.7536" font-family="Georgia" font-size="14.00" fill="#000000">ADMBase</text>
</g>
<!-- Seed_Magnetic_Fields_BNS&#45;&gt;ADMBase -->
<g id="edge2" class="edge">
<title>Seed_Magnetic_Fields_BNS&#45;&gt;ADMBase</title>
<path fill="none" stroke="#000000" d="M189.4197,-71.8314C189.4197,-64.131 189.4197,-54.9743 189.4197,-46.4166"/>
<polygon fill="#000000" stroke="#000000" points="192.9198,-46.4132 189.4197,-36.4133 185.9198,-46.4133 192.9198,-46.4132"/>
</g>
<!-- HydroBase -->
<g id="node4" class="node">
<title>HydroBase</title>
<ellipse fill="none" stroke="#000000" cx="316.4197" cy="-18" rx="56.7165" ry="18"/>
<text text-anchor="middle" x="316.4197" y="-14.7536" font-family="Georgia" font-size="14.00" fill="#000000">HydroBase</text>
</g>
<!-- Seed_Magnetic_Fields_BNS&#45;&gt;HydroBase -->
<g id="edge3" class="edge">
<title>Seed_Magnetic_Fields_BNS&#45;&gt;HydroBase</title>
<path fill="none" stroke="#000000" d="M220.4874,-72.3868C238.4098,-62.226 261.0441,-49.394 279.8256,-38.7463"/>
<polygon fill="#000000" stroke="#000000" points="281.7255,-41.6925 288.6986,-33.7159 278.2731,-35.6031 281.7255,-41.6925"/>
</g>
</g>
</svg>
