<?xml version="1.0" encoding="UTF-8" standalone="no"?>
<!DOCTYPE svg PUBLIC "-//W3C//DTD SVG 1.1//EN"
 "http://www.w3.org/Graphics/SVG/1.1/DTD/svg11.dtd">
<!-- Generated by graphviz version 2.40.1 (20161225.0304)
 -->
<!-- Title: foo Pages: 1 -->
<svg width="244pt" height="116pt"
 viewBox="0.00 0.00 243.69 116.00" xmlns="http://www.w3.org/2000/svg" xmlns:xlink="http://www.w3.org/1999/xlink">
<g id="graph0" class="graph" transform="scale(1 1) rotate(0) translate(4 112)">
<title>foo</title>
<polygon fill="#ffffff" stroke="transparent" points="-4,4 -4,-112 239.695,-112 239.695,4 -4,4"/>
<!-- seed_magnetic_fields -->
<g id="node1" class="node">
<title>seed_magnetic_fields</title>
<ellipse fill="none" stroke="#000000" cx="115.0868" cy="-90" rx="101.7953" ry="18"/>
<text text-anchor="middle" x="115.0868" y="-86.7536" font-family="Georgia" font-size="14.00" fill="#000000">seed_magnetic_fields</text>
</g>
<!-- ADMBase -->
<g id="node2" class="node">
<title>ADMBase</title>
<ellipse fill="none" stroke="#000000" cx="52.0868" cy="-18" rx="52.1738" ry="18"/>
<text text-anchor="middle" x="52.0868" y="-14.7536" font-family="Georgia" font-size="14.00" fill="#000000">ADMBase</text>
</g>
<!-- seed_magnetic_fields&#45;&gt;ADMBase -->
<g id="edge1" class="edge">
<title>seed_magnetic_fields&#45;&gt;ADMBase</title>
<path fill="none" stroke="#000000" d="M99.5138,-72.2022C91.8277,-63.4182 82.4248,-52.672 74.0243,-43.0714"/>
<polygon fill="#000000" stroke="#000000" points="76.4824,-40.5656 67.2633,-35.3446 71.2144,-45.1752 76.4824,-40.5656"/>
</g>
<!-- HydroBase -->
<g id="node3" class="node">
<title>HydroBase</title>
<ellipse fill="none" stroke="#000000" cx="179.0868" cy="-18" rx="56.7165" ry="18"/>
<text text-anchor="middle" x="179.0868" y="-14.7536" font-family="Georgia" font-size="14.00" fill="#000000">HydroBase</text>
</g>
<!-- seed_magnetic_fields&#45;&gt;HydroBase -->
<g id="edge2" class="edge">
<title>seed_magnetic_fields&#45;&gt;HydroBase</title>
<path fill="none" stroke="#000000" d="M130.9071,-72.2022C138.7151,-63.4182 148.2673,-52.672 156.8011,-43.0714"/>
<polygon fill="#000000" stroke="#000000" points="159.6417,-45.144 163.6694,-35.3446 154.4098,-40.4934 159.6417,-45.144"/>
</g>
</g>
</svg>
