<?xml version="1.0" encoding="UTF-8" standalone="no"?>
<!DOCTYPE svg PUBLIC "-//W3C//DTD SVG 1.1//EN"
 "http://www.w3.org/Graphics/SVG/1.1/DTD/svg11.dtd">
<!-- Generated by graphviz version 2.40.1 (20161225.0304)
 -->
<!-- Title: foo Pages: 1 -->
<svg width="268pt" height="188pt"
 viewBox="0.00 0.00 267.72 188.00" xmlns="http://www.w3.org/2000/svg" xmlns:xlink="http://www.w3.org/1999/xlink">
<g id="graph0" class="graph" transform="scale(1 1) rotate(0) translate(4 184)">
<title>foo</title>
<polygon fill="#ffffff" stroke="transparent" points="-4,4 -4,-184 263.715,-184 263.715,4 -4,4"/>
<!-- ML_ADMConstraints -->
<g id="node1" class="node">
<title>ML_ADMConstraints</title>
<ellipse fill="none" stroke="#000000" cx="122.5247" cy="-162" rx="101.0058" ry="18"/>
<text text-anchor="middle" x="122.5247" y="-158.7536" font-family="Georgia" font-size="14.00" fill="#000000">ML_ADMConstraints</text>
</g>
<!-- GenericFD -->
<g id="node2" class="node">
<title>GenericFD</title>
<ellipse fill="none" stroke="#000000" cx="55.5247" cy="-90" rx="55.5493" ry="18"/>
<text text-anchor="middle" x="55.5247" y="-86.7536" font-family="Georgia" font-size="14.00" fill="#000000">GenericFD</text>
</g>
<!-- ML_ADMConstraints&#45;&gt;GenericFD -->
<g id="edge1" class="edge">
<title>ML_ADMConstraints&#45;&gt;GenericFD</title>
<path fill="none" stroke="#000000" d="M105.9629,-144.2022C97.707,-135.3303 87.5887,-124.4569 78.5873,-114.7837"/>
<polygon fill="#000000" stroke="#000000" points="81.0394,-112.281 71.6648,-107.3446 75.9149,-117.0496 81.0394,-112.281"/>
</g>
<!-- TmunuBase -->
<g id="node3" class="node">
<title>TmunuBase</title>
<ellipse fill="none" stroke="#000000" cx="189.5247" cy="-90" rx="60.4057" ry="18"/>
<text text-anchor="middle" x="189.5247" y="-86.7536" font-family="Georgia" font-size="14.00" fill="#000000">TmunuBase</text>
</g>
<!-- ML_ADMConstraints&#45;&gt;TmunuBase -->
<g id="edge2" class="edge">
<title>ML_ADMConstraints&#45;&gt;TmunuBase</title>
<path fill="none" stroke="#000000" d="M139.0865,-144.2022C147.2811,-135.396 157.3108,-124.6179 166.2618,-114.9989"/>
<polygon fill="#000000" stroke="#000000" points="168.9033,-117.2981 173.1534,-107.593 163.7788,-112.5294 168.9033,-117.2981"/>
</g>
<!-- ADMCoupling -->
<g id="node4" class="node">
<title>ADMCoupling</title>
<ellipse fill="none" stroke="#000000" cx="189.5247" cy="-18" rx="70.3812" ry="18"/>
<text text-anchor="middle" x="189.5247" y="-14.7536" font-family="Georgia" font-size="14.00" fill="#000000">ADMCoupling</text>
</g>
<!-- TmunuBase&#45;&gt;ADMCoupling -->
<g id="edge3" class="edge">
<title>TmunuBase&#45;&gt;ADMCoupling</title>
<path fill="none" stroke="#000000" d="M189.5247,-71.8314C189.5247,-64.131 189.5247,-54.9743 189.5247,-46.4166"/>
<polygon fill="#000000" stroke="#000000" points="193.0248,-46.4132 189.5247,-36.4133 186.0248,-46.4133 193.0248,-46.4132"/>
</g>
</g>
</svg>
