<?xml version="1.0" encoding="UTF-8" standalone="no"?>
<!DOCTYPE svg PUBLIC "-//W3C//DTD SVG 1.1//EN"
 "http://www.w3.org/Graphics/SVG/1.1/DTD/svg11.dtd">
<!-- Generated by graphviz version 2.40.1 (20161225.0304)
 -->
<!-- Title: foo Pages: 1 -->
<svg width="317pt" height="116pt"
 viewBox="0.00 0.00 316.51 116.00" xmlns="http://www.w3.org/2000/svg" xmlns:xlink="http://www.w3.org/1999/xlink">
<g id="graph0" class="graph" transform="scale(1 1) rotate(0) translate(4 112)">
<title>foo</title>
<polygon fill="#ffffff" stroke="transparent" points="-4,4 -4,-112 312.5099,-112 312.5099,4 -4,4"/>
<!-- smallbPoynET -->
<g id="node1" class="node">
<title>smallbPoynET</title>
<ellipse fill="none" stroke="#000000" cx="129.4231" cy="-90" rx="71.237" ry="18"/>
<text text-anchor="middle" x="129.4231" y="-86.7536" font-family="Georgia" font-size="14.00" fill="#000000">smallbPoynET</text>
</g>
<!-- grid -->
<g id="node2" class="node">
<title>grid</title>
<ellipse fill="none" stroke="#000000" cx="27.4231" cy="-18" rx="27.3463" ry="18"/>
<text text-anchor="middle" x="27.4231" y="-14.7536" font-family="Georgia" font-size="14.00" fill="#000000">grid</text>
</g>
<!-- smallbPoynET&#45;&gt;grid -->
<g id="edge1" class="edge">
<title>smallbPoynET&#45;&gt;grid</title>
<path fill="none" stroke="#000000" d="M105.2505,-72.937C90.0402,-62.2004 70.3794,-48.3221 54.6244,-37.201"/>
<polygon fill="#000000" stroke="#000000" points="56.5147,-34.2511 46.3266,-31.3437 52.4779,-39.9699 56.5147,-34.2511"/>
</g>
<!-- HydroBase -->
<g id="node3" class="node">
<title>HydroBase</title>
<ellipse fill="none" stroke="#000000" cx="129.4231" cy="-18" rx="56.7165" ry="18"/>
<text text-anchor="middle" x="129.4231" y="-14.7536" font-family="Georgia" font-size="14.00" fill="#000000">HydroBase</text>
</g>
<!-- smallbPoynET&#45;&gt;HydroBase -->
<g id="edge2" class="edge">
<title>smallbPoynET&#45;&gt;HydroBase</title>
<path fill="none" stroke="#000000" d="M129.4231,-71.8314C129.4231,-64.131 129.4231,-54.9743 129.4231,-46.4166"/>
<polygon fill="#000000" stroke="#000000" points="132.9232,-46.4132 129.4231,-36.4133 125.9232,-46.4133 132.9232,-46.4132"/>
</g>
<!-- ADMBase -->
<g id="node4" class="node">
<title>ADMBase</title>
<ellipse fill="none" stroke="#000000" cx="256.4231" cy="-18" rx="52.1738" ry="18"/>
<text text-anchor="middle" x="256.4231" y="-14.7536" font-family="Georgia" font-size="14.00" fill="#000000">ADMBase</text>
</g>
<!-- smallbPoynET&#45;&gt;ADMBase -->
<g id="edge3" class="edge">
<title>smallbPoynET&#45;&gt;ADMBase</title>
<path fill="none" stroke="#000000" d="M158.5594,-73.4817C176.8931,-63.0878 200.6958,-49.5934 220.2358,-38.5156"/>
<polygon fill="#000000" stroke="#000000" points="222.187,-41.4328 229.1601,-33.4562 218.7347,-35.3433 222.187,-41.4328"/>
</g>
</g>
</svg>
