<?xml version="1.0" encoding="UTF-8" standalone="no"?>
<!DOCTYPE svg PUBLIC "-//W3C//DTD SVG 1.1//EN"
 "http://www.w3.org/Graphics/SVG/1.1/DTD/svg11.dtd">
<!-- Generated by graphviz version 2.40.1 (20161225.0304)
 -->
<!-- Title: foo Pages: 1 -->
<svg width="320pt" height="116pt"
 viewBox="0.00 0.00 319.77 116.00" xmlns="http://www.w3.org/2000/svg" xmlns:xlink="http://www.w3.org/1999/xlink">
<g id="graph0" class="graph" transform="scale(1 1) rotate(0) translate(4 112)">
<title>foo</title>
<polygon fill="#ffffff" stroke="transparent" points="-4,4 -4,-112 315.7683,-112 315.7683,4 -4,4"/>
<!-- CarpetLib -->
<g id="node1" class="node">
<title>CarpetLib</title>
<ellipse fill="none" stroke="#000000" cx="157.8784" cy="-90" rx="52.0182" ry="18"/>
<text text-anchor="middle" x="157.8784" y="-86.7536" font-family="Georgia" font-size="14.00" fill="#000000">CarpetLib</text>
</g>
<!-- Vectors -->
<g id="node2" class="node">
<title>Vectors</title>
<ellipse fill="none" stroke="#000000" cx="41.8784" cy="-18" rx="41.7572" ry="18"/>
<text text-anchor="middle" x="41.8784" y="-14.7536" font-family="Georgia" font-size="14.00" fill="#000000">Vectors</text>
</g>
<!-- CarpetLib&#45;&gt;Vectors -->
<g id="edge1" class="edge">
<title>CarpetLib&#45;&gt;Vectors</title>
<path fill="none" stroke="#000000" d="M132.4218,-74.1993C115.4569,-63.6694 92.9998,-49.7305 74.6954,-38.3692"/>
<polygon fill="#000000" stroke="#000000" points="76.4277,-35.325 66.0855,-33.0251 72.7361,-41.2725 76.4277,-35.325"/>
</g>
<!-- CycleClock -->
<g id="node3" class="node">
<title>CycleClock</title>
<ellipse fill="none" stroke="#000000" cx="157.8784" cy="-18" rx="55.5622" ry="18"/>
<text text-anchor="middle" x="157.8784" y="-14.7536" font-family="Georgia" font-size="14.00" fill="#000000">CycleClock</text>
</g>
<!-- CarpetLib&#45;&gt;CycleClock -->
<g id="edge2" class="edge">
<title>CarpetLib&#45;&gt;CycleClock</title>
<path fill="none" stroke="#000000" d="M157.8784,-71.8314C157.8784,-64.131 157.8784,-54.9743 157.8784,-46.4166"/>
<polygon fill="#000000" stroke="#000000" points="161.3785,-46.4132 157.8784,-36.4133 154.3785,-46.4133 161.3785,-46.4132"/>
</g>
<!-- Timers -->
<g id="node4" class="node">
<title>Timers</title>
<ellipse fill="none" stroke="#000000" cx="271.8784" cy="-18" rx="39.7799" ry="18"/>
<text text-anchor="middle" x="271.8784" y="-14.7536" font-family="Georgia" font-size="14.00" fill="#000000">Timers</text>
</g>
<!-- CarpetLib&#45;&gt;Timers -->
<g id="edge3" class="edge">
<title>CarpetLib&#45;&gt;Timers</title>
<path fill="none" stroke="#000000" d="M182.8962,-74.1993C199.6813,-63.5982 221.937,-49.542 239.9913,-38.1392"/>
<polygon fill="#000000" stroke="#000000" points="241.8886,-41.0806 248.4745,-32.7814 238.1506,-35.1622 241.8886,-41.0806"/>
</g>
</g>
</svg>
