<?xml version="1.0" encoding="UTF-8" standalone="no"?>
<!DOCTYPE svg PUBLIC "-//W3C//DTD SVG 1.1//EN"
 "http://www.w3.org/Graphics/SVG/1.1/DTD/svg11.dtd">
<!-- Generated by graphviz version 2.40.1 (20161225.0304)
 -->
<!-- Title: foo Pages: 1 -->
<svg width="552pt" height="116pt"
 viewBox="0.00 0.00 551.92 116.00" xmlns="http://www.w3.org/2000/svg" xmlns:xlink="http://www.w3.org/1999/xlink">
<g id="graph0" class="graph" transform="scale(1 1) rotate(0) translate(4 112)">
<title>foo</title>
<polygon fill="#ffffff" stroke="transparent" points="-4,4 -4,-112 547.9188,-112 547.9188,4 -4,4"/>
<!-- convert_to_HydroBase -->
<g id="node1" class="node">
<title>convert_to_HydroBase</title>
<ellipse fill="none" stroke="#000000" cx="256.4197" cy="-90" rx="108.0041" ry="18"/>
<text text-anchor="middle" x="256.4197" y="-86.7536" font-family="Georgia" font-size="14.00" fill="#000000">convert_to_HydroBase</text>
</g>
<!-- CartGrid3D -->
<g id="node2" class="node">
<title>CartGrid3D</title>
<ellipse fill="none" stroke="#000000" cx="59.4197" cy="-18" rx="59.3394" ry="18"/>
<text text-anchor="middle" x="59.4197" y="-14.7536" font-family="Georgia" font-size="14.00" fill="#000000">CartGrid3D</text>
</g>
<!-- convert_to_HydroBase&#45;&gt;CartGrid3D -->
<g id="edge1" class="edge">
<title>convert_to_HydroBase&#45;&gt;CartGrid3D</title>
<path fill="none" stroke="#000000" d="M211.2239,-73.4817C180.0311,-62.0814 138.6326,-46.9509 106.9474,-35.3705"/>
<polygon fill="#000000" stroke="#000000" points="108.0418,-32.0441 97.4479,-31.8987 105.6388,-38.6188 108.0418,-32.0441"/>
</g>
<!-- HydroBase -->
<g id="node3" class="node">
<title>HydroBase</title>
<ellipse fill="none" stroke="#000000" cx="193.4197" cy="-18" rx="56.7165" ry="18"/>
<text text-anchor="middle" x="193.4197" y="-14.7536" font-family="Georgia" font-size="14.00" fill="#000000">HydroBase</text>
</g>
<!-- convert_to_HydroBase&#45;&gt;HydroBase -->
<g id="edge2" class="edge">
<title>convert_to_HydroBase&#45;&gt;HydroBase</title>
<path fill="none" stroke="#000000" d="M240.5221,-71.8314C232.8901,-63.109 223.6232,-52.5183 215.3348,-43.0459"/>
<polygon fill="#000000" stroke="#000000" points="217.8793,-40.6387 208.6602,-35.4177 212.6112,-45.2483 217.8793,-40.6387"/>
</g>
<!-- ADMBase -->
<g id="node4" class="node">
<title>ADMBase</title>
<ellipse fill="none" stroke="#000000" cx="320.4197" cy="-18" rx="52.1738" ry="18"/>
<text text-anchor="middle" x="320.4197" y="-14.7536" font-family="Georgia" font-size="14.00" fill="#000000">ADMBase</text>
</g>
<!-- convert_to_HydroBase&#45;&gt;ADMBase -->
<g id="edge3" class="edge">
<title>convert_to_HydroBase&#45;&gt;ADMBase</title>
<path fill="none" stroke="#000000" d="M272.5696,-71.8314C280.3228,-63.109 289.7367,-52.5183 298.1566,-43.0459"/>
<polygon fill="#000000" stroke="#000000" points="300.9095,-45.2171 304.9373,-35.4177 295.6776,-40.5665 300.9095,-45.2171"/>
</g>
<!-- IllinoisGRMHD -->
<g id="node5" class="node">
<title>IllinoisGRMHD</title>
<ellipse fill="none" stroke="#000000" cx="467.4197" cy="-18" rx="76.4983" ry="18"/>
<text text-anchor="middle" x="467.4197" y="-14.7536" font-family="Georgia" font-size="14.00" fill="#000000">IllinoisGRMHD</text>
</g>
<!-- convert_to_HydroBase&#45;&gt;IllinoisGRMHD -->
<g id="edge4" class="edge">
<title>convert_to_HydroBase&#45;&gt;IllinoisGRMHD</title>
<path fill="none" stroke="#000000" d="M304.0353,-73.752C336.7809,-62.5782 380.3023,-47.7273 414.193,-36.1626"/>
<polygon fill="#000000" stroke="#000000" points="415.5944,-39.3827 423.9282,-32.8407 413.3337,-32.7578 415.5944,-39.3827"/>
</g>
</g>
</svg>
