<?xml version="1.0" encoding="UTF-8" standalone="no"?>
<!DOCTYPE svg PUBLIC "-//W3C//DTD SVG 1.1//EN"
 "http://www.w3.org/Graphics/SVG/1.1/DTD/svg11.dtd">
<!-- Generated by graphviz version 2.40.1 (20161225.0304)
 -->
<!-- Title: foo Pages: 1 -->
<svg width="878pt" height="116pt"
 viewBox="0.00 0.00 877.59 116.00" xmlns="http://www.w3.org/2000/svg" xmlns:xlink="http://www.w3.org/1999/xlink">
<g id="graph0" class="graph" transform="scale(1 1) rotate(0) translate(4 112)">
<title>foo</title>
<polygon fill="#ffffff" stroke="transparent" points="-4,4 -4,-112 873.586,-112 873.586,4 -4,4"/>
<!-- ID_converter_ILGRMHD -->
<g id="node1" class="node">
<title>ID_converter_ILGRMHD</title>
<ellipse fill="none" stroke="#000000" cx="435.0868" cy="-90" rx="118.6372" ry="18"/>
<text text-anchor="middle" x="435.0868" y="-86.7536" font-family="Georgia" font-size="14.00" fill="#000000">ID_converter_ILGRMHD</text>
</g>
<!-- ADMBase -->
<g id="node2" class="node">
<title>ADMBase</title>
<ellipse fill="none" stroke="#000000" cx="52.0868" cy="-18" rx="52.1738" ry="18"/>
<text text-anchor="middle" x="52.0868" y="-14.7536" font-family="Georgia" font-size="14.00" fill="#000000">ADMBase</text>
</g>
<!-- ID_converter_ILGRMHD&#45;&gt;ADMBase -->
<g id="edge1" class="edge">
<title>ID_converter_ILGRMHD&#45;&gt;ADMBase</title>
<path fill="none" stroke="#000000" d="M346.0238,-78.0174C281.0587,-68.5618 191.1063,-53.9838 113.0868,-36 108.9713,-35.0514 104.7238,-33.9843 100.4756,-32.8555"/>
<polygon fill="#000000" stroke="#000000" points="101.1947,-29.4232 90.6239,-30.136 99.3321,-36.1708 101.1947,-29.4232"/>
</g>
<!-- Boundary -->
<g id="node3" class="node">
<title>Boundary</title>
<ellipse fill="none" stroke="#000000" cx="173.0868" cy="-18" rx="51.1473" ry="18"/>
<text text-anchor="middle" x="173.0868" y="-14.7536" font-family="Georgia" font-size="14.00" fill="#000000">Boundary</text>
</g>
<!-- ID_converter_ILGRMHD&#45;&gt;Boundary -->
<g id="edge2" class="edge">
<title>ID_converter_ILGRMHD&#45;&gt;Boundary</title>
<path fill="none" stroke="#000000" d="M375.1748,-74.3148C335.1569,-63.737 281.3856,-49.3299 234.0868,-36 230.2509,-34.9189 226.284,-33.7849 222.2994,-32.6343"/>
<polygon fill="#000000" stroke="#000000" points="223.0022,-29.1938 212.4226,-29.761 221.0468,-35.9151 223.0022,-29.1938"/>
</g>
<!-- SpaceMask -->
<g id="node4" class="node">
<title>SpaceMask</title>
<ellipse fill="none" stroke="#000000" cx="300.0868" cy="-18" rx="57.0156" ry="18"/>
<text text-anchor="middle" x="300.0868" y="-14.7536" font-family="Georgia" font-size="14.00" fill="#000000">SpaceMask</text>
</g>
<!-- ID_converter_ILGRMHD&#45;&gt;SpaceMask -->
<g id="edge3" class="edge">
<title>ID_converter_ILGRMHD&#45;&gt;SpaceMask</title>
<path fill="none" stroke="#000000" d="M402.4071,-72.5708C383.0533,-62.2488 358.4404,-49.1219 338.2048,-38.3296"/>
<polygon fill="#000000" stroke="#000000" points="339.7206,-35.1714 329.2499,-33.5537 336.4264,-41.3478 339.7206,-35.1714"/>
</g>
<!-- Tmunubase -->
<g id="node5" class="node">
<title>Tmunubase</title>
<ellipse fill="none" stroke="#000000" cx="435.0868" cy="-18" rx="59.6503" ry="18"/>
<text text-anchor="middle" x="435.0868" y="-14.7536" font-family="Georgia" font-size="14.00" fill="#000000">Tmunubase</text>
</g>
<!-- ID_converter_ILGRMHD&#45;&gt;Tmunubase -->
<g id="edge4" class="edge">
<title>ID_converter_ILGRMHD&#45;&gt;Tmunubase</title>
<path fill="none" stroke="#000000" d="M435.0868,-71.8314C435.0868,-64.131 435.0868,-54.9743 435.0868,-46.4166"/>
<polygon fill="#000000" stroke="#000000" points="438.5869,-46.4132 435.0868,-36.4133 431.5869,-46.4133 438.5869,-46.4132"/>
</g>
<!-- HydroBase -->
<g id="node6" class="node">
<title>HydroBase</title>
<ellipse fill="none" stroke="#000000" cx="569.0868" cy="-18" rx="56.7165" ry="18"/>
<text text-anchor="middle" x="569.0868" y="-14.7536" font-family="Georgia" font-size="14.00" fill="#000000">HydroBase</text>
</g>
<!-- ID_converter_ILGRMHD&#45;&gt;HydroBase -->
<g id="edge5" class="edge">
<title>ID_converter_ILGRMHD&#45;&gt;HydroBase</title>
<path fill="none" stroke="#000000" d="M467.5245,-72.5708C486.7349,-62.2488 511.1655,-49.1219 531.2513,-38.3296"/>
<polygon fill="#000000" stroke="#000000" points="532.9874,-41.37 540.1397,-33.5537 529.6742,-35.2037 532.9874,-41.37"/>
</g>
<!-- grid -->
<g id="node7" class="node">
<title>grid</title>
<ellipse fill="none" stroke="#000000" cx="671.0868" cy="-18" rx="27.3463" ry="18"/>
<text text-anchor="middle" x="671.0868" y="-14.7536" font-family="Georgia" font-size="14.00" fill="#000000">grid</text>
</g>
<!-- ID_converter_ILGRMHD&#45;&gt;grid -->
<g id="edge6" class="edge">
<title>ID_converter_ILGRMHD&#45;&gt;grid</title>
<path fill="none" stroke="#000000" d="M503.2785,-75.1714C542.4524,-65.7702 592.23,-52.3117 635.0868,-36 636.8991,-35.3102 638.7415,-34.5585 640.5861,-33.7663"/>
<polygon fill="#000000" stroke="#000000" points="642.0813,-36.9312 649.6998,-29.5684 639.1527,-30.5732 642.0813,-36.9312"/>
</g>
<!-- IllinoisGRMHD -->
<g id="node8" class="node">
<title>IllinoisGRMHD</title>
<ellipse fill="none" stroke="#000000" cx="793.0868" cy="-18" rx="76.4983" ry="18"/>
<text text-anchor="middle" x="793.0868" y="-14.7536" font-family="Georgia" font-size="14.00" fill="#000000">IllinoisGRMHD</text>
</g>
<!-- ID_converter_ILGRMHD&#45;&gt;IllinoisGRMHD -->
<g id="edge7" class="edge">
<title>ID_converter_ILGRMHD&#45;&gt;IllinoisGRMHD</title>
<path fill="none" stroke="#000000" d="M507.8598,-75.7646C562.6631,-64.9928 639.6293,-49.7553 707.0868,-36 713.1682,-34.7599 719.4889,-33.4594 725.8192,-32.1489"/>
<polygon fill="#000000" stroke="#000000" points="726.6621,-35.5486 735.7417,-30.0886 725.239,-28.6948 726.6621,-35.5486"/>
</g>
</g>
</svg>
