<?xml version="1.0" encoding="UTF-8" standalone="no"?>
<!DOCTYPE svg PUBLIC "-//W3C//DTD SVG 1.1//EN"
 "http://www.w3.org/Graphics/SVG/1.1/DTD/svg11.dtd">
<!-- Generated by graphviz version 2.40.1 (20161225.0304)
 -->
<!-- Title: foo Pages: 1 -->
<svg width="443pt" height="116pt"
 viewBox="0.00 0.00 442.55 116.00" xmlns="http://www.w3.org/2000/svg" xmlns:xlink="http://www.w3.org/1999/xlink">
<g id="graph0" class="graph" transform="scale(1 1) rotate(0) translate(4 112)">
<title>foo</title>
<polygon fill="#ffffff" stroke="transparent" points="-4,4 -4,-112 438.5465,-112 438.5465,4 -4,4"/>
<!-- ADMMass -->
<g id="node1" class="node">
<title>ADMMass</title>
<ellipse fill="none" stroke="#000000" cx="202.2552" cy="-90" rx="54.3343" ry="18"/>
<text text-anchor="middle" x="202.2552" y="-86.7536" font-family="Georgia" font-size="14.00" fill="#000000">ADMMass</text>
</g>
<!-- ADMMacros -->
<g id="node2" class="node">
<title>ADMMacros</title>
<ellipse fill="none" stroke="#000000" cx="63.2552" cy="-18" rx="63.0114" ry="18"/>
<text text-anchor="middle" x="63.2552" y="-14.7536" font-family="Georgia" font-size="14.00" fill="#000000">ADMMacros</text>
</g>
<!-- ADMMass&#45;&gt;ADMMacros -->
<g id="edge1" class="edge">
<title>ADMMass&#45;&gt;ADMMacros</title>
<path fill="none" stroke="#000000" d="M172.7769,-74.7307C152.5551,-64.2561 125.4762,-50.2295 103.3039,-38.7446"/>
<polygon fill="#000000" stroke="#000000" points="104.6255,-35.4876 94.1362,-33.9959 101.4059,-41.7032 104.6255,-35.4876"/>
</g>
<!-- SpaceMask -->
<g id="node3" class="node">
<title>SpaceMask</title>
<ellipse fill="none" stroke="#000000" cx="202.2552" cy="-18" rx="57.0156" ry="18"/>
<text text-anchor="middle" x="202.2552" y="-14.7536" font-family="Georgia" font-size="14.00" fill="#000000">SpaceMask</text>
</g>
<!-- ADMMass&#45;&gt;SpaceMask -->
<g id="edge2" class="edge">
<title>ADMMass&#45;&gt;SpaceMask</title>
<path fill="none" stroke="#000000" d="M202.2552,-71.8314C202.2552,-64.131 202.2552,-54.9743 202.2552,-46.4166"/>
<polygon fill="#000000" stroke="#000000" points="205.7553,-46.4132 202.2552,-36.4133 198.7553,-46.4133 205.7553,-46.4132"/>
</g>
<!-- StaticConformal -->
<g id="node4" class="node">
<title>StaticConformal</title>
<ellipse fill="none" stroke="#000000" cx="356.2552" cy="-18" rx="78.083" ry="18"/>
<text text-anchor="middle" x="356.2552" y="-14.7536" font-family="Georgia" font-size="14.00" fill="#000000">StaticConformal</text>
</g>
<!-- ADMMass&#45;&gt;StaticConformal -->
<g id="edge3" class="edge">
<title>ADMMass&#45;&gt;StaticConformal</title>
<path fill="none" stroke="#000000" d="M233.7911,-75.256C256.4195,-64.6765 287.2093,-50.2812 312.2546,-38.5717"/>
<polygon fill="#000000" stroke="#000000" points="313.9667,-41.635 321.5431,-34.229 311.0019,-35.2938 313.9667,-41.635"/>
</g>
</g>
</svg>
