<?xml version="1.0" encoding="UTF-8" standalone="no"?>
<!DOCTYPE svg PUBLIC "-//W3C//DTD SVG 1.1//EN"
 "http://www.w3.org/Graphics/SVG/1.1/DTD/svg11.dtd">
<!-- Generated by graphviz version 2.40.1 (20161225.0304)
 -->
<!-- Title: foo Pages: 1 -->
<svg width="342pt" height="116pt"
 viewBox="0.00 0.00 342.39 116.00" xmlns="http://www.w3.org/2000/svg" xmlns:xlink="http://www.w3.org/1999/xlink">
<g id="graph0" class="graph" transform="scale(1 1) rotate(0) translate(4 112)">
<title>foo</title>
<polygon fill="#ffffff" stroke="transparent" points="-4,4 -4,-112 338.3882,-112 338.3882,4 -4,4"/>
<!-- NSTracker -->
<g id="node1" class="node">
<title>NSTracker</title>
<ellipse fill="none" stroke="#000000" cx="168.5176" cy="-90" rx="55.2175" ry="18"/>
<text text-anchor="middle" x="168.5176" y="-86.7536" font-family="Georgia" font-size="14.00" fill="#000000">NSTracker</text>
</g>
<!-- SphericalSurface -->
<g id="node2" class="node">
<title>SphericalSurface</title>
<ellipse fill="none" stroke="#000000" cx="80.5176" cy="-18" rx="80.5352" ry="18"/>
<text text-anchor="middle" x="80.5176" y="-14.7536" font-family="Georgia" font-size="14.00" fill="#000000">SphericalSurface</text>
</g>
<!-- NSTracker&#45;&gt;SphericalSurface -->
<g id="edge1" class="edge">
<title>NSTracker&#45;&gt;SphericalSurface</title>
<path fill="none" stroke="#000000" d="M147.6628,-72.937C136.3223,-63.6584 122.1142,-52.0336 109.6915,-41.8696"/>
<polygon fill="#000000" stroke="#000000" points="111.7899,-39.0642 101.834,-35.4407 107.3572,-44.4819 111.7899,-39.0642"/>
</g>
<!-- Hydro_Analysis -->
<g id="node3" class="node">
<title>Hydro_Analysis</title>
<ellipse fill="none" stroke="#000000" cx="256.5176" cy="-18" rx="77.7415" ry="18"/>
<text text-anchor="middle" x="256.5176" y="-14.7536" font-family="Georgia" font-size="14.00" fill="#000000">Hydro_Analysis</text>
</g>
<!-- NSTracker&#45;&gt;Hydro_Analysis -->
<g id="edge2" class="edge">
<title>NSTracker&#45;&gt;Hydro_Analysis</title>
<path fill="none" stroke="#000000" d="M189.3724,-72.937C200.7129,-63.6584 214.921,-52.0336 227.3437,-41.8696"/>
<polygon fill="#000000" stroke="#000000" points="229.678,-44.4819 235.2012,-35.4407 225.2453,-39.0642 229.678,-44.4819"/>
</g>
</g>
</svg>
