<?xml version="1.0" encoding="UTF-8" standalone="no"?>
<!DOCTYPE svg PUBLIC "-//W3C//DTD SVG 1.1//EN"
 "http://www.w3.org/Graphics/SVG/1.1/DTD/svg11.dtd">
<!-- Generated by graphviz version 2.40.1 (20161225.0304)
 -->
<!-- Title: foo Pages: 1 -->
<svg width="288pt" height="116pt"
 viewBox="0.00 0.00 288.18 116.00" xmlns="http://www.w3.org/2000/svg" xmlns:xlink="http://www.w3.org/1999/xlink">
<g id="graph0" class="graph" transform="scale(1 1) rotate(0) translate(4 112)">
<title>foo</title>
<polygon fill="#ffffff" stroke="transparent" points="-4,4 -4,-112 284.1838,-112 284.1838,4 -4,4"/>
<!-- CarpetReduce -->
<g id="node1" class="node">
<title>CarpetReduce</title>
<ellipse fill="none" stroke="#000000" cx="69.0063" cy="-90" rx="69.0126" ry="18"/>
<text text-anchor="middle" x="69.0063" y="-86.7536" font-family="Georgia" font-size="14.00" fill="#000000">CarpetReduce</text>
</g>
<!-- Carpet -->
<g id="node2" class="node">
<title>Carpet</title>
<ellipse fill="none" stroke="#000000" cx="69.0063" cy="-18" rx="38.2445" ry="18"/>
<text text-anchor="middle" x="69.0063" y="-14.7536" font-family="Georgia" font-size="14.00" fill="#000000">Carpet</text>
</g>
<!-- CarpetReduce&#45;&gt;Carpet -->
<g id="edge1" class="edge">
<title>CarpetReduce&#45;&gt;Carpet</title>
<path fill="none" stroke="#000000" d="M69.0063,-71.8314C69.0063,-64.131 69.0063,-54.9743 69.0063,-46.4166"/>
<polygon fill="#000000" stroke="#000000" points="72.5064,-46.4132 69.0063,-36.4133 65.5064,-46.4133 72.5064,-46.4132"/>
</g>
<!-- CarpetMask -->
<g id="node3" class="node">
<title>CarpetMask</title>
<ellipse fill="none" stroke="#000000" cx="217.0063" cy="-90" rx="60.665" ry="18"/>
<text text-anchor="middle" x="217.0063" y="-86.7536" font-family="Georgia" font-size="14.00" fill="#000000">CarpetMask</text>
</g>
<!-- LoopControl -->
<g id="node4" class="node">
<title>LoopControl</title>
<ellipse fill="none" stroke="#000000" cx="217.0063" cy="-18" rx="63.3555" ry="18"/>
<text text-anchor="middle" x="217.0063" y="-14.7536" font-family="Georgia" font-size="14.00" fill="#000000">LoopControl</text>
</g>
<!-- CarpetMask&#45;&gt;LoopControl -->
<g id="edge2" class="edge">
<title>CarpetMask&#45;&gt;LoopControl</title>
<path fill="none" stroke="#000000" d="M217.0063,-71.8314C217.0063,-64.131 217.0063,-54.9743 217.0063,-46.4166"/>
<polygon fill="#000000" stroke="#000000" points="220.5064,-46.4132 217.0063,-36.4133 213.5064,-46.4133 220.5064,-46.4132"/>
</g>
</g>
</svg>
