<?xml version="1.0" encoding="UTF-8" standalone="no"?>
<!DOCTYPE svg PUBLIC "-//W3C//DTD SVG 1.1//EN"
 "http://www.w3.org/Graphics/SVG/1.1/DTD/svg11.dtd">
<!-- Generated by graphviz version 2.40.1 (20161225.0304)
 -->
<!-- Title: foo Pages: 1 -->
<svg width="540pt" height="116pt"
 viewBox="0.00 0.00 540.38 116.00" xmlns="http://www.w3.org/2000/svg" xmlns:xlink="http://www.w3.org/1999/xlink">
<g id="graph0" class="graph" transform="scale(1 1) rotate(0) translate(4 112)">
<title>foo</title>
<polygon fill="#ffffff" stroke="transparent" points="-4,4 -4,-112 536.3781,-112 536.3781,4 -4,4"/>
<!-- TOVSolver -->
<g id="node1" class="node">
<title>TOVSolver</title>
<ellipse fill="none" stroke="#000000" cx="242.0868" cy="-90" rx="55.8791" ry="18"/>
<text text-anchor="middle" x="242.0868" y="-86.7536" font-family="Georgia" font-size="14.00" fill="#000000">TOVSolver</text>
</g>
<!-- ADMBase -->
<g id="node2" class="node">
<title>ADMBase</title>
<ellipse fill="none" stroke="#000000" cx="52.0868" cy="-18" rx="52.1738" ry="18"/>
<text text-anchor="middle" x="52.0868" y="-14.7536" font-family="Georgia" font-size="14.00" fill="#000000">ADMBase</text>
</g>
<!-- TOVSolver&#45;&gt;ADMBase -->
<g id="edge1" class="edge">
<title>TOVSolver&#45;&gt;ADMBase</title>
<path fill="none" stroke="#000000" d="M205.9021,-76.2879C174.9353,-64.5531 130.2227,-47.6094 96.9789,-35.0117"/>
<polygon fill="#000000" stroke="#000000" points="98.0851,-31.6881 87.4937,-31.4173 95.6045,-38.2339 98.0851,-31.6881"/>
</g>
<!-- HydroBase -->
<g id="node3" class="node">
<title>HydroBase</title>
<ellipse fill="none" stroke="#000000" cx="179.0868" cy="-18" rx="56.7165" ry="18"/>
<text text-anchor="middle" x="179.0868" y="-14.7536" font-family="Georgia" font-size="14.00" fill="#000000">HydroBase</text>
</g>
<!-- TOVSolver&#45;&gt;HydroBase -->
<g id="edge2" class="edge">
<title>TOVSolver&#45;&gt;HydroBase</title>
<path fill="none" stroke="#000000" d="M226.8363,-72.5708C219.1548,-63.7919 209.6979,-52.9841 201.2324,-43.3093"/>
<polygon fill="#000000" stroke="#000000" points="203.6344,-40.7393 194.4153,-35.5182 198.3663,-45.3488 203.6344,-40.7393"/>
</g>
<!-- Constants -->
<g id="node4" class="node">
<title>Constants</title>
<ellipse fill="none" stroke="#000000" cx="306.0868" cy="-18" rx="52.1921" ry="18"/>
<text text-anchor="middle" x="306.0868" y="-14.7536" font-family="Georgia" font-size="14.00" fill="#000000">Constants</text>
</g>
<!-- TOVSolver&#45;&gt;Constants -->
<g id="edge3" class="edge">
<title>TOVSolver&#45;&gt;Constants</title>
<path fill="none" stroke="#000000" d="M257.5794,-72.5708C265.5193,-63.6385 275.3263,-52.6056 284.0398,-42.8029"/>
<polygon fill="#000000" stroke="#000000" points="286.7092,-45.0681 290.7369,-35.2687 281.4773,-40.4175 286.7092,-45.0681"/>
</g>
<!-- StaticConformal -->
<g id="node5" class="node">
<title>StaticConformal</title>
<ellipse fill="none" stroke="#000000" cx="454.0868" cy="-18" rx="78.083" ry="18"/>
<text text-anchor="middle" x="454.0868" y="-14.7536" font-family="Georgia" font-size="14.00" fill="#000000">StaticConformal</text>
</g>
<!-- TOVSolver&#45;&gt;StaticConformal -->
<g id="edge4" class="edge">
<title>TOVSolver&#45;&gt;StaticConformal</title>
<path fill="none" stroke="#000000" d="M280.9709,-76.7941C314.4387,-65.4277 363.0706,-48.9112 400.2741,-36.276"/>
<polygon fill="#000000" stroke="#000000" points="401.6118,-39.5181 409.9551,-32.9881 399.3607,-32.8899 401.6118,-39.5181"/>
</g>
</g>
</svg>
