<?xml version="1.0" encoding="UTF-8" standalone="no"?>
<!DOCTYPE svg PUBLIC "-//W3C//DTD SVG 1.1//EN"
 "http://www.w3.org/Graphics/SVG/1.1/DTD/svg11.dtd">
<!-- Generated by graphviz version 2.40.1 (20161225.0304)
 -->
<!-- Title: foo Pages: 1 -->
<svg width="306pt" height="116pt"
 viewBox="0.00 0.00 305.94 116.00" xmlns="http://www.w3.org/2000/svg" xmlns:xlink="http://www.w3.org/1999/xlink">
<g id="graph0" class="graph" transform="scale(1 1) rotate(0) translate(4 112)">
<title>foo</title>
<polygon fill="#ffffff" stroke="transparent" points="-4,4 -4,-112 301.9373,-112 301.9373,4 -4,4"/>
<!-- CarpetMask -->
<g id="node1" class="node">
<title>CarpetMask</title>
<ellipse fill="none" stroke="#000000" cx="138.4197" cy="-90" rx="60.665" ry="18"/>
<text text-anchor="middle" x="138.4197" y="-86.7536" font-family="Georgia" font-size="14.00" fill="#000000">CarpetMask</text>
</g>
<!-- CartGrid3D -->
<g id="node2" class="node">
<title>CartGrid3D</title>
<ellipse fill="none" stroke="#000000" cx="59.4197" cy="-18" rx="59.3394" ry="18"/>
<text text-anchor="middle" x="59.4197" y="-14.7536" font-family="Georgia" font-size="14.00" fill="#000000">CartGrid3D</text>
</g>
<!-- CarpetMask&#45;&gt;CartGrid3D -->
<g id="edge1" class="edge">
<title>CarpetMask&#45;&gt;CartGrid3D</title>
<path fill="none" stroke="#000000" d="M119.296,-72.5708C109.3011,-63.4616 96.9094,-52.1679 85.9966,-42.2221"/>
<polygon fill="#000000" stroke="#000000" points="88.1158,-39.4179 78.3673,-35.2687 83.4006,-44.5916 88.1158,-39.4179"/>
</g>
<!-- SphericalSurface -->
<g id="node3" class="node">
<title>SphericalSurface</title>
<ellipse fill="none" stroke="#000000" cx="217.4197" cy="-18" rx="80.5352" ry="18"/>
<text text-anchor="middle" x="217.4197" y="-14.7536" font-family="Georgia" font-size="14.00" fill="#000000">SphericalSurface</text>
</g>
<!-- CarpetMask&#45;&gt;SphericalSurface -->
<g id="edge2" class="edge">
<title>CarpetMask&#45;&gt;SphericalSurface</title>
<path fill="none" stroke="#000000" d="M157.5434,-72.5708C167.4647,-63.5286 179.7478,-52.3338 190.6017,-42.4417"/>
<polygon fill="#000000" stroke="#000000" points="193.1649,-44.8411 198.1983,-35.5182 188.4497,-39.6675 193.1649,-44.8411"/>
</g>
</g>
</svg>
