<?xml version="1.0" encoding="UTF-8" standalone="no"?>
<!DOCTYPE svg PUBLIC "-//W3C//DTD SVG 1.1//EN"
 "http://www.w3.org/Graphics/SVG/1.1/DTD/svg11.dtd">
<!-- Generated by graphviz version 2.40.1 (20161225.0304)
 -->
<!-- Title: foo Pages: 1 -->
<svg width="317pt" height="116pt"
 viewBox="0.00 0.00 317.03 116.00" xmlns="http://www.w3.org/2000/svg" xmlns:xlink="http://www.w3.org/1999/xlink">
<g id="graph0" class="graph" transform="scale(1 1) rotate(0) translate(4 112)">
<title>foo</title>
<polygon fill="#ffffff" stroke="transparent" points="-4,4 -4,-112 313.0312,-112 313.0312,4 -4,4"/>
<!-- seed_magnetic_fields -->
<g id="node1" class="node">
<title>seed_magnetic_fields</title>
<ellipse fill="none" stroke="#000000" cx="125.4231" cy="-90" rx="101.7953" ry="18"/>
<text text-anchor="middle" x="125.4231" y="-86.7536" font-family="Georgia" font-size="14.00" fill="#000000">seed_magnetic_fields</text>
</g>
<!-- grid -->
<g id="node2" class="node">
<title>grid</title>
<ellipse fill="none" stroke="#000000" cx="27.4231" cy="-18" rx="27.3463" ry="18"/>
<text text-anchor="middle" x="27.4231" y="-14.7536" font-family="Georgia" font-size="14.00" fill="#000000">grid</text>
</g>
<!-- seed_magnetic_fields&#45;&gt;grid -->
<g id="edge1" class="edge">
<title>seed_magnetic_fields&#45;&gt;grid</title>
<path fill="none" stroke="#000000" d="M101.4496,-72.3868C87.1442,-61.8767 68.9486,-48.5086 54.1771,-37.656"/>
<polygon fill="#000000" stroke="#000000" points="56.0619,-34.6977 45.9308,-31.5975 51.9173,-40.3389 56.0619,-34.6977"/>
</g>
<!-- ADMBase -->
<g id="node3" class="node">
<title>ADMBase</title>
<ellipse fill="none" stroke="#000000" cx="125.4231" cy="-18" rx="52.1738" ry="18"/>
<text text-anchor="middle" x="125.4231" y="-14.7536" font-family="Georgia" font-size="14.00" fill="#000000">ADMBase</text>
</g>
<!-- seed_magnetic_fields&#45;&gt;ADMBase -->
<g id="edge2" class="edge">
<title>seed_magnetic_fields&#45;&gt;ADMBase</title>
<path fill="none" stroke="#000000" d="M125.4231,-71.8314C125.4231,-64.131 125.4231,-54.9743 125.4231,-46.4166"/>
<polygon fill="#000000" stroke="#000000" points="128.9232,-46.4132 125.4231,-36.4133 121.9232,-46.4133 128.9232,-46.4132"/>
</g>
<!-- HydroBase -->
<g id="node4" class="node">
<title>HydroBase</title>
<ellipse fill="none" stroke="#000000" cx="252.4231" cy="-18" rx="56.7165" ry="18"/>
<text text-anchor="middle" x="252.4231" y="-14.7536" font-family="Georgia" font-size="14.00" fill="#000000">HydroBase</text>
</g>
<!-- seed_magnetic_fields&#45;&gt;HydroBase -->
<g id="edge3" class="edge">
<title>seed_magnetic_fields&#45;&gt;HydroBase</title>
<path fill="none" stroke="#000000" d="M155.8427,-72.7542C173.7526,-62.6006 196.5336,-49.6854 215.472,-38.9486"/>
<polygon fill="#000000" stroke="#000000" points="217.4491,-41.8511 224.4222,-33.8745 213.9968,-35.7617 217.4491,-41.8511"/>
</g>
</g>
</svg>
