<?xml version="1.0" encoding="UTF-8" standalone="no"?>
<!DOCTYPE svg PUBLIC "-//W3C//DTD SVG 1.1//EN"
 "http://www.w3.org/Graphics/SVG/1.1/DTD/svg11.dtd">
<!-- Generated by graphviz version 2.40.1 (20161225.0304)
 -->
<!-- Title: foo Pages: 1 -->
<svg width="443pt" height="116pt"
 viewBox="0.00 0.00 442.55 116.00" xmlns="http://www.w3.org/2000/svg" xmlns:xlink="http://www.w3.org/1999/xlink">
<g id="graph0" class="graph" transform="scale(1 1) rotate(0) translate(4 112)">
<title>foo</title>
<polygon fill="#ffffff" stroke="transparent" points="-4,4 -4,-112 438.5465,-112 438.5465,4 -4,4"/>
<!-- ADMMass -->
<g id="node1" class="node">
<title>ADMMass</title>
<ellipse fill="none" stroke="#000000" cx="133.2552" cy="-90" rx="54.3343" ry="18"/>
<text text-anchor="middle" x="133.2552" y="-86.7536" font-family="Georgia" font-size="14.00" fill="#000000">ADMMass</text>
</g>
<!-- ADMMacros -->
<g id="node2" class="node">
<title>ADMMacros</title>
<ellipse fill="none" stroke="#000000" cx="63.2552" cy="-18" rx="63.0114" ry="18"/>
<text text-anchor="middle" x="63.2552" y="-14.7536" font-family="Georgia" font-size="14.00" fill="#000000">ADMMacros</text>
</g>
<!-- ADMMass&#45;&gt;ADMMacros -->
<g id="edge1" class="edge">
<title>ADMMass&#45;&gt;ADMMacros</title>
<path fill="none" stroke="#000000" d="M116.3102,-72.5708C107.6045,-63.6164 96.8465,-52.551 87.2984,-42.7302"/>
<polygon fill="#000000" stroke="#000000" points="89.7672,-40.2484 80.2869,-35.5182 84.7482,-45.128 89.7672,-40.2484"/>
</g>
<!-- SpaceMask -->
<g id="node3" class="node">
<title>SpaceMask</title>
<ellipse fill="none" stroke="#000000" cx="202.2552" cy="-18" rx="57.0156" ry="18"/>
<text text-anchor="middle" x="202.2552" y="-14.7536" font-family="Georgia" font-size="14.00" fill="#000000">SpaceMask</text>
</g>
<!-- ADMMass&#45;&gt;SpaceMask -->
<g id="edge2" class="edge">
<title>ADMMass&#45;&gt;SpaceMask</title>
<path fill="none" stroke="#000000" d="M149.9582,-72.5708C158.6031,-63.55 169.3011,-52.387 178.7645,-42.5121"/>
<polygon fill="#000000" stroke="#000000" points="181.314,-44.9103 185.7061,-35.2687 176.26,-40.0669 181.314,-44.9103"/>
</g>
<!-- ADMAnalysis -->
<g id="node4" class="node">
<title>ADMAnalysis</title>
<ellipse fill="none" stroke="#000000" cx="356.2552" cy="-90" rx="67.1575" ry="18"/>
<text text-anchor="middle" x="356.2552" y="-86.7536" font-family="Georgia" font-size="14.00" fill="#000000">ADMAnalysis</text>
</g>
<!-- StaticConformal -->
<g id="node5" class="node">
<title>StaticConformal</title>
<ellipse fill="none" stroke="#000000" cx="356.2552" cy="-18" rx="78.083" ry="18"/>
<text text-anchor="middle" x="356.2552" y="-14.7536" font-family="Georgia" font-size="14.00" fill="#000000">StaticConformal</text>
</g>
<!-- ADMAnalysis&#45;&gt;StaticConformal -->
<g id="edge3" class="edge">
<title>ADMAnalysis&#45;&gt;StaticConformal</title>
<path fill="none" stroke="#000000" d="M356.2552,-71.8314C356.2552,-64.131 356.2552,-54.9743 356.2552,-46.4166"/>
<polygon fill="#000000" stroke="#000000" points="359.7553,-46.4132 356.2552,-36.4133 352.7553,-46.4133 359.7553,-46.4132"/>
</g>
</g>
</svg>
