<?xml version="1.0" encoding="UTF-8" standalone="no"?>
<!DOCTYPE svg PUBLIC "-//W3C//DTD SVG 1.1//EN"
 "http://www.w3.org/Graphics/SVG/1.1/DTD/svg11.dtd">
<!-- Generated by graphviz version 2.40.1 (20161225.0304)
 -->
<!-- Title: foo Pages: 1 -->
<svg width="322pt" height="116pt"
 viewBox="0.00 0.00 322.04 116.00" xmlns="http://www.w3.org/2000/svg" xmlns:xlink="http://www.w3.org/1999/xlink">
<g id="graph0" class="graph" transform="scale(1 1) rotate(0) translate(4 112)">
<title>foo</title>
<polygon fill="#ffffff" stroke="transparent" points="-4,4 -4,-112 318.0384,-112 318.0384,4 -4,4"/>
<!-- Seed_Magnetic_Fields_BNS -->
<g id="node1" class="node">
<title>Seed_Magnetic_Fields_BNS</title>
<ellipse fill="none" stroke="#000000" cx="130.4303" cy="-90" rx="130.3606" ry="18"/>
<text text-anchor="middle" x="130.4303" y="-86.7536" font-family="Georgia" font-size="14.00" fill="#000000">Seed_Magnetic_Fields_BNS</text>
</g>
<!-- grid -->
<g id="node2" class="node">
<title>grid</title>
<ellipse fill="none" stroke="#000000" cx="32.4303" cy="-18" rx="27.3463" ry="18"/>
<text text-anchor="middle" x="32.4303" y="-14.7536" font-family="Georgia" font-size="14.00" fill="#000000">grid</text>
</g>
<!-- Seed_Magnetic_Fields_BNS&#45;&gt;grid -->
<g id="edge1" class="edge">
<title>Seed_Magnetic_Fields_BNS&#45;&gt;grid</title>
<path fill="none" stroke="#000000" d="M106.2056,-72.2022C91.8963,-61.6893 73.7618,-48.366 59.0531,-37.5596"/>
<polygon fill="#000000" stroke="#000000" points="60.9747,-34.6283 50.8436,-31.5281 56.8301,-40.2695 60.9747,-34.6283"/>
</g>
<!-- ADMBase -->
<g id="node3" class="node">
<title>ADMBase</title>
<ellipse fill="none" stroke="#000000" cx="130.4303" cy="-18" rx="52.1738" ry="18"/>
<text text-anchor="middle" x="130.4303" y="-14.7536" font-family="Georgia" font-size="14.00" fill="#000000">ADMBase</text>
</g>
<!-- Seed_Magnetic_Fields_BNS&#45;&gt;ADMBase -->
<g id="edge2" class="edge">
<title>Seed_Magnetic_Fields_BNS&#45;&gt;ADMBase</title>
<path fill="none" stroke="#000000" d="M130.4303,-71.8314C130.4303,-64.131 130.4303,-54.9743 130.4303,-46.4166"/>
<polygon fill="#000000" stroke="#000000" points="133.9304,-46.4132 130.4303,-36.4133 126.9304,-46.4133 133.9304,-46.4132"/>
</g>
<!-- HydroBase -->
<g id="node4" class="node">
<title>HydroBase</title>
<ellipse fill="none" stroke="#000000" cx="257.4303" cy="-18" rx="56.7165" ry="18"/>
<text text-anchor="middle" x="257.4303" y="-14.7536" font-family="Georgia" font-size="14.00" fill="#000000">HydroBase</text>
</g>
<!-- Seed_Magnetic_Fields_BNS&#45;&gt;HydroBase -->
<g id="edge3" class="edge">
<title>Seed_Magnetic_Fields_BNS&#45;&gt;HydroBase</title>
<path fill="none" stroke="#000000" d="M161.498,-72.3868C179.4205,-62.226 202.0547,-49.394 220.8362,-38.7463"/>
<polygon fill="#000000" stroke="#000000" points="222.7361,-41.6925 229.7092,-33.7159 219.2838,-35.6031 222.7361,-41.6925"/>
</g>
</g>
</svg>
