<?xml version="1.0" encoding="UTF-8" standalone="no"?>
<!DOCTYPE svg PUBLIC "-//W3C//DTD SVG 1.1//EN"
 "http://www.w3.org/Graphics/SVG/1.1/DTD/svg11.dtd">
<!-- Generated by graphviz version 2.40.1 (20161225.0304)
 -->
<!-- Title: foo Pages: 1 -->
<svg width="310pt" height="116pt"
 viewBox="0.00 0.00 309.55 116.00" xmlns="http://www.w3.org/2000/svg" xmlns:xlink="http://www.w3.org/1999/xlink">
<g id="graph0" class="graph" transform="scale(1 1) rotate(0) translate(4 112)">
<title>foo</title>
<polygon fill="#ffffff" stroke="transparent" points="-4,4 -4,-112 305.5465,-112 305.5465,4 -4,4"/>
<!-- ADMAnalysis -->
<g id="node1" class="node">
<title>ADMAnalysis</title>
<ellipse fill="none" stroke="#000000" cx="143.2552" cy="-90" rx="67.1575" ry="18"/>
<text text-anchor="middle" x="143.2552" y="-86.7536" font-family="Georgia" font-size="14.00" fill="#000000">ADMAnalysis</text>
</g>
<!-- ADMMacros -->
<g id="node2" class="node">
<title>ADMMacros</title>
<ellipse fill="none" stroke="#000000" cx="63.2552" cy="-18" rx="63.0114" ry="18"/>
<text text-anchor="middle" x="63.2552" y="-14.7536" font-family="Georgia" font-size="14.00" fill="#000000">ADMMacros</text>
</g>
<!-- ADMAnalysis&#45;&gt;ADMMacros -->
<g id="edge1" class="edge">
<title>ADMAnalysis&#45;&gt;ADMMacros</title>
<path fill="none" stroke="#000000" d="M123.8895,-72.5708C113.7681,-63.4616 101.2195,-52.1679 90.1686,-42.2221"/>
<polygon fill="#000000" stroke="#000000" points="92.217,-39.3568 82.4427,-35.2687 87.5342,-44.5599 92.217,-39.3568"/>
</g>
<!-- StaticConformal -->
<g id="node3" class="node">
<title>StaticConformal</title>
<ellipse fill="none" stroke="#000000" cx="223.2552" cy="-18" rx="78.083" ry="18"/>
<text text-anchor="middle" x="223.2552" y="-14.7536" font-family="Georgia" font-size="14.00" fill="#000000">StaticConformal</text>
</g>
<!-- ADMAnalysis&#45;&gt;StaticConformal -->
<g id="edge2" class="edge">
<title>ADMAnalysis&#45;&gt;StaticConformal</title>
<path fill="none" stroke="#000000" d="M162.621,-72.5708C172.6679,-63.5286 185.1065,-52.3338 196.0978,-42.4417"/>
<polygon fill="#000000" stroke="#000000" points="198.699,-44.8095 203.7905,-35.5182 194.0162,-39.6064 198.699,-44.8095"/>
</g>
</g>
</svg>
