<?xml version="1.0" encoding="UTF-8" standalone="no"?>
<!DOCTYPE svg PUBLIC "-//W3C//DTD SVG 1.1//EN"
 "http://www.w3.org/Graphics/SVG/1.1/DTD/svg11.dtd">
<!-- Generated by graphviz version 2.40.1 (20161225.0304)
 -->
<!-- Title: foo Pages: 1 -->
<svg width="190pt" height="116pt"
 viewBox="0.00 0.00 190.32 116.00" xmlns="http://www.w3.org/2000/svg" xmlns:xlink="http://www.w3.org/1999/xlink">
<g id="graph0" class="graph" transform="scale(1 1) rotate(0) translate(4 112)">
<title>foo</title>
<polygon fill="#ffffff" stroke="transparent" points="-4,4 -4,-112 186.3168,-112 186.3168,4 -4,4"/>
<!-- HydroBase -->
<g id="node1" class="node">
<title>HydroBase</title>
<ellipse fill="none" stroke="#000000" cx="95.266" cy="-90" rx="56.7165" ry="18"/>
<text text-anchor="middle" x="95.266" y="-86.7536" font-family="Georgia" font-size="14.00" fill="#000000">HydroBase</text>
</g>
<!-- InitBase -->
<g id="node2" class="node">
<title>InitBase</title>
<ellipse fill="none" stroke="#000000" cx="45.266" cy="-18" rx="45.0332" ry="18"/>
<text text-anchor="middle" x="45.266" y="-14.7536" font-family="Georgia" font-size="14.00" fill="#000000">InitBase</text>
</g>
<!-- HydroBase&#45;&gt;InitBase -->
<g id="edge1" class="edge">
<title>HydroBase&#45;&gt;InitBase</title>
<path fill="none" stroke="#000000" d="M82.9064,-72.2022C76.9727,-63.6576 69.7496,-53.2564 63.2237,-43.859"/>
<polygon fill="#000000" stroke="#000000" points="66.0622,-41.8103 57.4834,-35.593 60.3126,-45.8031 66.0622,-41.8103"/>
</g>
<!-- IOUtil -->
<g id="node3" class="node">
<title>IOUtil</title>
<ellipse fill="none" stroke="#000000" cx="145.266" cy="-18" rx="37.1018" ry="18"/>
<text text-anchor="middle" x="145.266" y="-14.7536" font-family="Georgia" font-size="14.00" fill="#000000">IOUtil</text>
</g>
<!-- HydroBase&#45;&gt;IOUtil -->
<g id="edge2" class="edge">
<title>HydroBase&#45;&gt;IOUtil</title>
<path fill="none" stroke="#000000" d="M107.6256,-72.2022C113.6479,-63.5301 120.9983,-52.9455 127.6001,-43.4389"/>
<polygon fill="#000000" stroke="#000000" points="130.5637,-45.3073 133.3929,-35.0972 124.8141,-41.3145 130.5637,-45.3073"/>
</g>
</g>
</svg>
