<?xml version="1.0" encoding="UTF-8" standalone="no"?>
<!DOCTYPE svg PUBLIC "-//W3C//DTD SVG 1.1//EN"
 "http://www.w3.org/Graphics/SVG/1.1/DTD/svg11.dtd">
<!-- Generated by graphviz version 2.40.1 (20161225.0304)
 -->
<!-- Title: foo Pages: 1 -->
<svg width="182pt" height="116pt"
 viewBox="0.00 0.00 182.26 116.00" xmlns="http://www.w3.org/2000/svg" xmlns:xlink="http://www.w3.org/1999/xlink">
<g id="graph0" class="graph" transform="scale(1 1) rotate(0) translate(4 112)">
<title>foo</title>
<polygon fill="#ffffff" stroke="transparent" points="-4,4 -4,-112 178.2618,-112 178.2618,4 -4,4"/>
<!-- CarpetRegrid2 -->
<g id="node1" class="node">
<title>CarpetRegrid2</title>
<ellipse fill="none" stroke="#000000" cx="86.372" cy="-90" rx="71.3403" ry="18"/>
<text text-anchor="middle" x="86.372" y="-86.7536" font-family="Georgia" font-size="14.00" fill="#000000">CarpetRegrid2</text>
</g>
<!-- Carpet -->
<g id="node2" class="node">
<title>Carpet</title>
<ellipse fill="none" stroke="#000000" cx="38.372" cy="-18" rx="38.2445" ry="18"/>
<text text-anchor="middle" x="38.372" y="-14.7536" font-family="Georgia" font-size="14.00" fill="#000000">Carpet</text>
</g>
<!-- CarpetRegrid2&#45;&gt;Carpet -->
<g id="edge1" class="edge">
<title>CarpetRegrid2&#45;&gt;Carpet</title>
<path fill="none" stroke="#000000" d="M74.5069,-72.2022C68.8265,-63.6817 61.9154,-53.315 55.6643,-43.9385"/>
<polygon fill="#000000" stroke="#000000" points="58.3943,-41.7236 49.9351,-35.3446 52.57,-45.6066 58.3943,-41.7236"/>
</g>
<!-- Timers -->
<g id="node3" class="node">
<title>Timers</title>
<ellipse fill="none" stroke="#000000" cx="134.372" cy="-18" rx="39.7799" ry="18"/>
<text text-anchor="middle" x="134.372" y="-14.7536" font-family="Georgia" font-size="14.00" fill="#000000">Timers</text>
</g>
<!-- CarpetRegrid2&#45;&gt;Timers -->
<g id="edge2" class="edge">
<title>CarpetRegrid2&#45;&gt;Timers</title>
<path fill="none" stroke="#000000" d="M98.2372,-72.2022C103.9176,-63.6817 110.8287,-53.315 117.0797,-43.9385"/>
<polygon fill="#000000" stroke="#000000" points="120.1741,-45.6066 122.809,-35.3446 114.3498,-41.7236 120.1741,-45.6066"/>
</g>
</g>
</svg>
