<?xml version="1.0" encoding="UTF-8" standalone="no"?>
<!DOCTYPE svg PUBLIC "-//W3C//DTD SVG 1.1//EN"
 "http://www.w3.org/Graphics/SVG/1.1/DTD/svg11.dtd">
<!-- Generated by graphviz version 2.40.1 (20161225.0304)
 -->
<!-- Title: foo Pages: 1 -->
<svg width="453pt" height="116pt"
 viewBox="0.00 0.00 452.60 116.00" xmlns="http://www.w3.org/2000/svg" xmlns:xlink="http://www.w3.org/1999/xlink">
<g id="graph0" class="graph" transform="scale(1 1) rotate(0) translate(4 112)">
<title>foo</title>
<polygon fill="#ffffff" stroke="transparent" points="-4,4 -4,-112 448.6044,-112 448.6044,4 -4,4"/>
<!-- PunctureTracker -->
<g id="node1" class="node">
<title>PunctureTracker</title>
<ellipse fill="none" stroke="#000000" cx="250.5176" cy="-90" rx="80.5626" ry="18"/>
<text text-anchor="middle" x="250.5176" y="-86.7536" font-family="Georgia" font-size="14.00" fill="#000000">PunctureTracker</text>
</g>
<!-- SphericalSurface -->
<g id="node2" class="node">
<title>SphericalSurface</title>
<ellipse fill="none" stroke="#000000" cx="80.5176" cy="-18" rx="80.5352" ry="18"/>
<text text-anchor="middle" x="80.5176" y="-14.7536" font-family="Georgia" font-size="14.00" fill="#000000">SphericalSurface</text>
</g>
<!-- PunctureTracker&#45;&gt;SphericalSurface -->
<g id="edge1" class="edge">
<title>PunctureTracker&#45;&gt;SphericalSurface</title>
<path fill="none" stroke="#000000" d="M212.7891,-74.0209C187.5884,-63.3477 154.2594,-49.2318 127.3623,-37.8401"/>
<polygon fill="#000000" stroke="#000000" points="128.7138,-34.6116 118.1406,-33.9345 125.9838,-41.0573 128.7138,-34.6116"/>
</g>
<!-- CarpetRegrid2 -->
<g id="node3" class="node">
<title>CarpetRegrid2</title>
<ellipse fill="none" stroke="#000000" cx="250.5176" cy="-18" rx="71.3403" ry="18"/>
<text text-anchor="middle" x="250.5176" y="-14.7536" font-family="Georgia" font-size="14.00" fill="#000000">CarpetRegrid2</text>
</g>
<!-- PunctureTracker&#45;&gt;CarpetRegrid2 -->
<g id="edge2" class="edge">
<title>PunctureTracker&#45;&gt;CarpetRegrid2</title>
<path fill="none" stroke="#000000" d="M250.5176,-71.8314C250.5176,-64.131 250.5176,-54.9743 250.5176,-46.4166"/>
<polygon fill="#000000" stroke="#000000" points="254.0177,-46.4132 250.5176,-36.4133 247.0177,-46.4133 254.0177,-46.4132"/>
</g>
<!-- ADMBase -->
<g id="node4" class="node">
<title>ADMBase</title>
<ellipse fill="none" stroke="#000000" cx="392.5176" cy="-18" rx="52.1738" ry="18"/>
<text text-anchor="middle" x="392.5176" y="-14.7536" font-family="Georgia" font-size="14.00" fill="#000000">ADMBase</text>
</g>
<!-- PunctureTracker&#45;&gt;ADMBase -->
<g id="edge3" class="edge">
<title>PunctureTracker&#45;&gt;ADMBase</title>
<path fill="none" stroke="#000000" d="M283.0953,-73.4817C304.1592,-62.8014 331.6798,-48.8473 353.8512,-37.6055"/>
<polygon fill="#000000" stroke="#000000" points="355.6552,-40.6151 362.9914,-32.971 352.4895,-34.3718 355.6552,-40.6151"/>
</g>
</g>
</svg>
