<?xml version="1.0" encoding="UTF-8" standalone="no"?>
<!DOCTYPE svg PUBLIC "-//W3C//DTD SVG 1.1//EN"
 "http://www.w3.org/Graphics/SVG/1.1/DTD/svg11.dtd">
<!-- Generated by graphviz version 2.40.1 (20161225.0304)
 -->
<!-- Title: foo Pages: 1 -->
<svg width="134pt" height="188pt"
 viewBox="0.00 0.00 134.36 188.00" xmlns="http://www.w3.org/2000/svg" xmlns:xlink="http://www.w3.org/1999/xlink">
<g id="graph0" class="graph" transform="scale(1 1) rotate(0) translate(4 184)">
<title>foo</title>
<polygon fill="#ffffff" stroke="transparent" points="-4,4 -4,-184 130.355,-184 130.355,4 -4,4"/>
<!-- LoopControl -->
<g id="node1" class="node">
<title>LoopControl</title>
<ellipse fill="none" stroke="#000000" cx="63.1775" cy="-162" rx="63.3555" ry="18"/>
<text text-anchor="middle" x="63.1775" y="-158.7536" font-family="Georgia" font-size="14.00" fill="#000000">LoopControl</text>
</g>
<!-- hwloc -->
<g id="node2" class="node">
<title>hwloc</title>
<ellipse fill="none" stroke="#000000" cx="63.1775" cy="-90" rx="35.0604" ry="18"/>
<text text-anchor="middle" x="63.1775" y="-86.7536" font-family="Georgia" font-size="14.00" fill="#000000">hwloc</text>
</g>
<!-- LoopControl&#45;&gt;hwloc -->
<g id="edge1" class="edge">
<title>LoopControl&#45;&gt;hwloc</title>
<path fill="none" stroke="#000000" d="M63.1775,-143.8314C63.1775,-136.131 63.1775,-126.9743 63.1775,-118.4166"/>
<polygon fill="#000000" stroke="#000000" points="66.6776,-118.4132 63.1775,-108.4133 59.6776,-118.4133 66.6776,-118.4132"/>
</g>
<!-- zlib -->
<g id="node3" class="node">
<title>zlib</title>
<ellipse fill="none" stroke="#000000" cx="63.1775" cy="-18" rx="27" ry="18"/>
<text text-anchor="middle" x="63.1775" y="-14.7536" font-family="Georgia" font-size="14.00" fill="#000000">zlib</text>
</g>
<!-- hwloc&#45;&gt;zlib -->
<g id="edge2" class="edge">
<title>hwloc&#45;&gt;zlib</title>
<path fill="none" stroke="#000000" d="M63.1775,-71.8314C63.1775,-64.131 63.1775,-54.9743 63.1775,-46.4166"/>
<polygon fill="#000000" stroke="#000000" points="66.6776,-46.4132 63.1775,-36.4133 59.6776,-46.4133 66.6776,-46.4132"/>
</g>
</g>
</svg>
