<?xml version="1.0" encoding="UTF-8" standalone="no"?>
<!DOCTYPE svg PUBLIC "-//W3C//DTD SVG 1.1//EN"
 "http://www.w3.org/Graphics/SVG/1.1/DTD/svg11.dtd">
<!-- Generated by graphviz version 2.40.1 (20161225.0304)
 -->
<!-- Title: foo Pages: 1 -->
<svg width="381pt" height="116pt"
 viewBox="0.00 0.00 381.03 116.00" xmlns="http://www.w3.org/2000/svg" xmlns:xlink="http://www.w3.org/1999/xlink">
<g id="graph0" class="graph" transform="scale(1 1) rotate(0) translate(4 112)">
<title>foo</title>
<polygon fill="#ffffff" stroke="transparent" points="-4,4 -4,-112 377.0278,-112 377.0278,4 -4,4"/>
<!-- seed_magnetic_fields -->
<g id="node1" class="node">
<title>seed_magnetic_fields</title>
<ellipse fill="none" stroke="#000000" cx="189.4197" cy="-90" rx="101.7953" ry="18"/>
<text text-anchor="middle" x="189.4197" y="-86.7536" font-family="Georgia" font-size="14.00" fill="#000000">seed_magnetic_fields</text>
</g>
<!-- CartGrid3D -->
<g id="node2" class="node">
<title>CartGrid3D</title>
<ellipse fill="none" stroke="#000000" cx="59.4197" cy="-18" rx="59.3394" ry="18"/>
<text text-anchor="middle" x="59.4197" y="-14.7536" font-family="Georgia" font-size="14.00" fill="#000000">CartGrid3D</text>
</g>
<!-- seed_magnetic_fields&#45;&gt;CartGrid3D -->
<g id="edge1" class="edge">
<title>seed_magnetic_fields&#45;&gt;CartGrid3D</title>
<path fill="none" stroke="#000000" d="M158.2814,-72.7542C139.8651,-62.5544 116.4173,-49.5679 96.9795,-38.8024"/>
<polygon fill="#000000" stroke="#000000" points="98.5257,-35.6578 88.082,-33.8745 95.1341,-41.7813 98.5257,-35.6578"/>
</g>
<!-- ADMBase -->
<g id="node3" class="node">
<title>ADMBase</title>
<ellipse fill="none" stroke="#000000" cx="189.4197" cy="-18" rx="52.1738" ry="18"/>
<text text-anchor="middle" x="189.4197" y="-14.7536" font-family="Georgia" font-size="14.00" fill="#000000">ADMBase</text>
</g>
<!-- seed_magnetic_fields&#45;&gt;ADMBase -->
<g id="edge2" class="edge">
<title>seed_magnetic_fields&#45;&gt;ADMBase</title>
<path fill="none" stroke="#000000" d="M189.4197,-71.8314C189.4197,-64.131 189.4197,-54.9743 189.4197,-46.4166"/>
<polygon fill="#000000" stroke="#000000" points="192.9198,-46.4132 189.4197,-36.4133 185.9198,-46.4133 192.9198,-46.4132"/>
</g>
<!-- HydroBase -->
<g id="node4" class="node">
<title>HydroBase</title>
<ellipse fill="none" stroke="#000000" cx="316.4197" cy="-18" rx="56.7165" ry="18"/>
<text text-anchor="middle" x="316.4197" y="-14.7536" font-family="Georgia" font-size="14.00" fill="#000000">HydroBase</text>
</g>
<!-- seed_magnetic_fields&#45;&gt;HydroBase -->
<g id="edge3" class="edge">
<title>seed_magnetic_fields&#45;&gt;HydroBase</title>
<path fill="none" stroke="#000000" d="M219.8393,-72.7542C237.7492,-62.6006 260.5302,-49.6854 279.4686,-38.9486"/>
<polygon fill="#000000" stroke="#000000" points="281.4457,-41.8511 288.4188,-33.8745 277.9934,-35.7617 281.4457,-41.8511"/>
</g>
</g>
</svg>
