<?xml version="1.0" encoding="UTF-8" standalone="no"?>
<!DOCTYPE svg PUBLIC "-//W3C//DTD SVG 1.1//EN"
 "http://www.w3.org/Graphics/SVG/1.1/DTD/svg11.dtd">
<!-- Generated by graphviz version 2.40.1 (20161225.0304)
 -->
<!-- Title: foo Pages: 1 -->
<svg width="542pt" height="116pt"
 viewBox="0.00 0.00 541.84 116.00" xmlns="http://www.w3.org/2000/svg" xmlns:xlink="http://www.w3.org/1999/xlink">
<g id="graph0" class="graph" transform="scale(1 1) rotate(0) translate(4 112)">
<title>foo</title>
<polygon fill="#ffffff" stroke="transparent" points="-4,4 -4,-112 537.8398,-112 537.8398,4 -4,4"/>
<!-- VolumeIntegrals_GRMHD -->
<g id="node1" class="node">
<title>VolumeIntegrals_GRMHD</title>
<ellipse fill="none" stroke="#000000" cx="256.4197" cy="-90" rx="122.5246" ry="18"/>
<text text-anchor="middle" x="256.4197" y="-86.7536" font-family="Georgia" font-size="14.00" fill="#000000">VolumeIntegrals_GRMHD</text>
</g>
<!-- CartGrid3D -->
<g id="node2" class="node">
<title>CartGrid3D</title>
<ellipse fill="none" stroke="#000000" cx="59.4197" cy="-18" rx="59.3394" ry="18"/>
<text text-anchor="middle" x="59.4197" y="-14.7536" font-family="Georgia" font-size="14.00" fill="#000000">CartGrid3D</text>
</g>
<!-- VolumeIntegrals_GRMHD&#45;&gt;CartGrid3D -->
<g id="edge1" class="edge">
<title>VolumeIntegrals_GRMHD&#45;&gt;CartGrid3D</title>
<path fill="none" stroke="#000000" d="M210.2319,-73.1192C179.1068,-61.7435 138.1643,-46.7798 106.7938,-35.3144"/>
<polygon fill="#000000" stroke="#000000" points="107.9807,-32.0218 97.3868,-31.8763 105.5777,-38.5965 107.9807,-32.0218"/>
</g>
<!-- HydroBase -->
<g id="node3" class="node">
<title>HydroBase</title>
<ellipse fill="none" stroke="#000000" cx="193.4197" cy="-18" rx="56.7165" ry="18"/>
<text text-anchor="middle" x="193.4197" y="-14.7536" font-family="Georgia" font-size="14.00" fill="#000000">HydroBase</text>
</g>
<!-- VolumeIntegrals_GRMHD&#45;&gt;HydroBase -->
<g id="edge2" class="edge">
<title>VolumeIntegrals_GRMHD&#45;&gt;HydroBase</title>
<path fill="none" stroke="#000000" d="M240.5221,-71.8314C232.8901,-63.109 223.6232,-52.5183 215.3348,-43.0459"/>
<polygon fill="#000000" stroke="#000000" points="217.8793,-40.6387 208.6602,-35.4177 212.6112,-45.2483 217.8793,-40.6387"/>
</g>
<!-- ADMBase -->
<g id="node4" class="node">
<title>ADMBase</title>
<ellipse fill="none" stroke="#000000" cx="320.4197" cy="-18" rx="52.1738" ry="18"/>
<text text-anchor="middle" x="320.4197" y="-14.7536" font-family="Georgia" font-size="14.00" fill="#000000">ADMBase</text>
</g>
<!-- VolumeIntegrals_GRMHD&#45;&gt;ADMBase -->
<g id="edge3" class="edge">
<title>VolumeIntegrals_GRMHD&#45;&gt;ADMBase</title>
<path fill="none" stroke="#000000" d="M272.5696,-71.8314C280.3228,-63.109 289.7367,-52.5183 298.1566,-43.0459"/>
<polygon fill="#000000" stroke="#000000" points="300.9095,-45.2171 304.9373,-35.4177 295.6776,-40.5665 300.9095,-45.2171"/>
</g>
<!-- CarpetRegrid2 -->
<g id="node5" class="node">
<title>CarpetRegrid2</title>
<ellipse fill="none" stroke="#000000" cx="462.4197" cy="-18" rx="71.3403" ry="18"/>
<text text-anchor="middle" x="462.4197" y="-14.7536" font-family="Georgia" font-size="14.00" fill="#000000">CarpetRegrid2</text>
</g>
<!-- VolumeIntegrals_GRMHD&#45;&gt;CarpetRegrid2 -->
<g id="edge4" class="edge">
<title>VolumeIntegrals_GRMHD&#45;&gt;CarpetRegrid2</title>
<path fill="none" stroke="#000000" d="M303.9389,-73.3913C335.8128,-62.2509 377.7903,-47.5792 410.535,-36.1345"/>
<polygon fill="#000000" stroke="#000000" points="412.0941,-39.2972 420.3793,-32.6937 409.7845,-32.6892 412.0941,-39.2972"/>
</g>
</g>
</svg>
