<?xml version="1.0" encoding="UTF-8" standalone="no"?>
<!DOCTYPE svg PUBLIC "-//W3C//DTD SVG 1.1//EN"
 "http://www.w3.org/Graphics/SVG/1.1/DTD/svg11.dtd">
<!-- Generated by graphviz version 2.40.1 (20161225.0304)
 -->
<!-- Title: foo Pages: 1 -->
<svg width="634pt" height="116pt"
 viewBox="0.00 0.00 633.69 116.00" xmlns="http://www.w3.org/2000/svg" xmlns:xlink="http://www.w3.org/1999/xlink">
<g id="graph0" class="graph" transform="scale(1 1) rotate(0) translate(4 112)">
<title>foo</title>
<polygon fill="#ffffff" stroke="transparent" points="-4,4 -4,-112 629.695,-112 629.695,4 -4,4"/>
<!-- GRHydro -->
<g id="node1" class="node">
<title>GRHydro</title>
<ellipse fill="none" stroke="#000000" cx="300.0868" cy="-90" rx="50.6107" ry="18"/>
<text text-anchor="middle" x="300.0868" y="-86.7536" font-family="Georgia" font-size="14.00" fill="#000000">GRHydro</text>
</g>
<!-- ADMBase -->
<g id="node2" class="node">
<title>ADMBase</title>
<ellipse fill="none" stroke="#000000" cx="52.0868" cy="-18" rx="52.1738" ry="18"/>
<text text-anchor="middle" x="52.0868" y="-14.7536" font-family="Georgia" font-size="14.00" fill="#000000">ADMBase</text>
</g>
<!-- GRHydro&#45;&gt;ADMBase -->
<g id="edge1" class="edge">
<title>GRHydro&#45;&gt;ADMBase</title>
<path fill="none" stroke="#000000" d="M260.6674,-78.6889C222.8093,-67.8088 164.0143,-50.8669 113.0868,-36 109.3191,-34.9001 105.4216,-33.7586 101.503,-32.6083"/>
<polygon fill="#000000" stroke="#000000" points="102.362,-29.2128 91.7808,-29.7493 100.3871,-35.9284 102.362,-29.2128"/>
</g>
<!-- Boundary -->
<g id="node3" class="node">
<title>Boundary</title>
<ellipse fill="none" stroke="#000000" cx="173.0868" cy="-18" rx="51.1473" ry="18"/>
<text text-anchor="middle" x="173.0868" y="-14.7536" font-family="Georgia" font-size="14.00" fill="#000000">Boundary</text>
</g>
<!-- GRHydro&#45;&gt;Boundary -->
<g id="edge2" class="edge">
<title>GRHydro&#45;&gt;Boundary</title>
<path fill="none" stroke="#000000" d="M273.1534,-74.7307C254.5898,-64.2064 229.7014,-50.0964 209.3902,-38.5814"/>
<polygon fill="#000000" stroke="#000000" points="210.8447,-35.3827 200.4193,-33.4956 207.3924,-41.4722 210.8447,-35.3827"/>
</g>
<!-- SpaceMask -->
<g id="node4" class="node">
<title>SpaceMask</title>
<ellipse fill="none" stroke="#000000" cx="300.0868" cy="-18" rx="57.0156" ry="18"/>
<text text-anchor="middle" x="300.0868" y="-14.7536" font-family="Georgia" font-size="14.00" fill="#000000">SpaceMask</text>
</g>
<!-- GRHydro&#45;&gt;SpaceMask -->
<g id="edge3" class="edge">
<title>GRHydro&#45;&gt;SpaceMask</title>
<path fill="none" stroke="#000000" d="M300.0868,-71.8314C300.0868,-64.131 300.0868,-54.9743 300.0868,-46.4166"/>
<polygon fill="#000000" stroke="#000000" points="303.5869,-46.4132 300.0868,-36.4133 296.5869,-46.4133 303.5869,-46.4132"/>
</g>
<!-- Tmunubase -->
<g id="node5" class="node">
<title>Tmunubase</title>
<ellipse fill="none" stroke="#000000" cx="435.0868" cy="-18" rx="59.6503" ry="18"/>
<text text-anchor="middle" x="435.0868" y="-14.7536" font-family="Georgia" font-size="14.00" fill="#000000">Tmunubase</text>
</g>
<!-- GRHydro&#45;&gt;Tmunubase -->
<g id="edge4" class="edge">
<title>GRHydro&#45;&gt;Tmunubase</title>
<path fill="none" stroke="#000000" d="M328.3873,-74.9064C348.1418,-64.3707 374.7511,-50.179 396.4546,-38.6039"/>
<polygon fill="#000000" stroke="#000000" points="398.2449,-41.6158 405.4214,-33.8216 394.9507,-35.4393 398.2449,-41.6158"/>
</g>
<!-- HydroBase -->
<g id="node6" class="node">
<title>HydroBase</title>
<ellipse fill="none" stroke="#000000" cx="569.0868" cy="-18" rx="56.7165" ry="18"/>
<text text-anchor="middle" x="569.0868" y="-14.7536" font-family="Georgia" font-size="14.00" fill="#000000">HydroBase</text>
</g>
<!-- GRHydro&#45;&gt;HydroBase -->
<g id="edge5" class="edge">
<title>GRHydro&#45;&gt;HydroBase</title>
<path fill="none" stroke="#000000" d="M341.1508,-79.2768C382.3736,-68.4776 447.6833,-51.2744 504.0868,-36 508.1557,-34.8981 512.3655,-33.7502 516.5963,-32.591"/>
<polygon fill="#000000" stroke="#000000" points="517.7353,-35.9078 526.4496,-29.8819 515.8795,-29.1583 517.7353,-35.9078"/>
</g>
</g>
</svg>
