<?xml version="1.0" encoding="UTF-8" standalone="no"?>
<!DOCTYPE svg PUBLIC "-//W3C//DTD SVG 1.1//EN"
 "http://www.w3.org/Graphics/SVG/1.1/DTD/svg11.dtd">
<!-- Generated by graphviz version 2.40.1 (20161225.0304)
 -->
<!-- Title: foo Pages: 1 -->
<svg width="464pt" height="116pt"
 viewBox="0.00 0.00 464.06 116.00" xmlns="http://www.w3.org/2000/svg" xmlns:xlink="http://www.w3.org/1999/xlink">
<g id="graph0" class="graph" transform="scale(1 1) rotate(0) translate(4 112)">
<title>foo</title>
<polygon fill="#ffffff" stroke="transparent" points="-4,4 -4,-112 460.056,-112 460.056,4 -4,4"/>
<!-- CarpetLib -->
<g id="node1" class="node">
<title>CarpetLib</title>
<ellipse fill="none" stroke="#000000" cx="214.8784" cy="-90" rx="52.0182" ry="18"/>
<text text-anchor="middle" x="214.8784" y="-86.7536" font-family="Georgia" font-size="14.00" fill="#000000">CarpetLib</text>
</g>
<!-- Vectors -->
<g id="node2" class="node">
<title>Vectors</title>
<ellipse fill="none" stroke="#000000" cx="41.8784" cy="-18" rx="41.7572" ry="18"/>
<text text-anchor="middle" x="41.8784" y="-14.7536" font-family="Georgia" font-size="14.00" fill="#000000">Vectors</text>
</g>
<!-- CarpetLib&#45;&gt;Vectors -->
<g id="edge1" class="edge">
<title>CarpetLib&#45;&gt;Vectors</title>
<path fill="none" stroke="#000000" d="M181.5223,-76.1177C152.9936,-64.2445 111.8728,-47.1306 81.6393,-34.5479"/>
<polygon fill="#000000" stroke="#000000" points="82.8127,-31.2452 72.2355,-30.6341 80.123,-37.7079 82.8127,-31.2452"/>
</g>
<!-- CycleClock -->
<g id="node3" class="node">
<title>CycleClock</title>
<ellipse fill="none" stroke="#000000" cx="157.8784" cy="-18" rx="55.5622" ry="18"/>
<text text-anchor="middle" x="157.8784" y="-14.7536" font-family="Georgia" font-size="14.00" fill="#000000">CycleClock</text>
</g>
<!-- CarpetLib&#45;&gt;CycleClock -->
<g id="edge2" class="edge">
<title>CarpetLib&#45;&gt;CycleClock</title>
<path fill="none" stroke="#000000" d="M201.0803,-72.5708C194.1999,-63.8797 185.7452,-53.2001 178.145,-43.5998"/>
<polygon fill="#000000" stroke="#000000" points="180.6983,-41.1862 171.7471,-35.5182 175.21,-45.5312 180.6983,-41.1862"/>
</g>
<!-- Timers -->
<g id="node4" class="node">
<title>Timers</title>
<ellipse fill="none" stroke="#000000" cx="271.8784" cy="-18" rx="39.7799" ry="18"/>
<text text-anchor="middle" x="271.8784" y="-14.7536" font-family="Georgia" font-size="14.00" fill="#000000">Timers</text>
</g>
<!-- CarpetLib&#45;&gt;Timers -->
<g id="edge3" class="edge">
<title>CarpetLib&#45;&gt;Timers</title>
<path fill="none" stroke="#000000" d="M228.6766,-72.5708C235.608,-63.8153 244.1371,-53.0418 251.7807,-43.3867"/>
<polygon fill="#000000" stroke="#000000" points="254.7445,-45.2816 258.2074,-35.2687 249.2562,-40.9367 254.7445,-45.2816"/>
</g>
<!-- LoopControl -->
<g id="node5" class="node">
<title>LoopControl</title>
<ellipse fill="none" stroke="#000000" cx="392.8784" cy="-18" rx="63.3555" ry="18"/>
<text text-anchor="middle" x="392.8784" y="-14.7536" font-family="Georgia" font-size="14.00" fill="#000000">LoopControl</text>
</g>
<!-- CarpetLib&#45;&gt;LoopControl -->
<g id="edge4" class="edge">
<title>CarpetLib&#45;&gt;LoopControl</title>
<path fill="none" stroke="#000000" d="M248.7779,-76.2879C276.5386,-65.0588 316.091,-49.0601 346.7372,-36.6639"/>
<polygon fill="#000000" stroke="#000000" points="348.3902,-39.7708 356.3481,-32.7763 345.7653,-33.2816 348.3902,-39.7708"/>
</g>
</g>
</svg>
