<?xml version="1.0" encoding="UTF-8" standalone="no"?>
<!DOCTYPE svg PUBLIC "-//W3C//DTD SVG 1.1//EN"
 "http://www.w3.org/Graphics/SVG/1.1/DTD/svg11.dtd">
<!-- Generated by graphviz version 2.40.1 (20161225.0304)
 -->
<!-- Title: foo Pages: 1 -->
<svg width="381pt" height="116pt"
 viewBox="0.00 0.00 381.03 116.00" xmlns="http://www.w3.org/2000/svg" xmlns:xlink="http://www.w3.org/1999/xlink">
<g id="graph0" class="graph" transform="scale(1 1) rotate(0) translate(4 112)">
<title>foo</title>
<polygon fill="#ffffff" stroke="transparent" points="-4,4 -4,-112 377.0278,-112 377.0278,4 -4,4"/>
<!-- Hydro_Analysis -->
<g id="node1" class="node">
<title>Hydro_Analysis</title>
<ellipse fill="none" stroke="#000000" cx="183.6081" cy="-90" rx="77.7415" ry="18"/>
<text text-anchor="middle" x="183.6081" y="-86.7536" font-family="Georgia" font-size="14.00" fill="#000000">Hydro_Analysis</text>
</g>
<!-- HydroBase -->
<g id="node2" class="node">
<title>HydroBase</title>
<ellipse fill="none" stroke="#000000" cx="56.6081" cy="-18" rx="56.7165" ry="18"/>
<text text-anchor="middle" x="56.6081" y="-14.7536" font-family="Georgia" font-size="14.00" fill="#000000">HydroBase</text>
</g>
<!-- Hydro_Analysis&#45;&gt;HydroBase -->
<g id="edge1" class="edge">
<title>Hydro_Analysis&#45;&gt;HydroBase</title>
<path fill="none" stroke="#000000" d="M154.1526,-73.3008C136.0609,-63.0441 112.7348,-49.8198 93.4296,-38.8751"/>
<polygon fill="#000000" stroke="#000000" points="95.0221,-35.7547 84.5967,-33.8675 91.5698,-41.8442 95.0221,-35.7547"/>
</g>
<!-- ADMBase -->
<g id="node3" class="node">
<title>ADMBase</title>
<ellipse fill="none" stroke="#000000" cx="183.6081" cy="-18" rx="52.1738" ry="18"/>
<text text-anchor="middle" x="183.6081" y="-14.7536" font-family="Georgia" font-size="14.00" fill="#000000">ADMBase</text>
</g>
<!-- Hydro_Analysis&#45;&gt;ADMBase -->
<g id="edge2" class="edge">
<title>Hydro_Analysis&#45;&gt;ADMBase</title>
<path fill="none" stroke="#000000" d="M183.6081,-71.8314C183.6081,-64.131 183.6081,-54.9743 183.6081,-46.4166"/>
<polygon fill="#000000" stroke="#000000" points="187.1082,-46.4132 183.6081,-36.4133 180.1082,-46.4133 187.1082,-46.4132"/>
</g>
<!-- CartGrid3D -->
<g id="node4" class="node">
<title>CartGrid3D</title>
<ellipse fill="none" stroke="#000000" cx="313.6081" cy="-18" rx="59.3394" ry="18"/>
<text text-anchor="middle" x="313.6081" y="-14.7536" font-family="Georgia" font-size="14.00" fill="#000000">CartGrid3D</text>
</g>
<!-- Hydro_Analysis&#45;&gt;CartGrid3D -->
<g id="edge3" class="edge">
<title>Hydro_Analysis&#45;&gt;CartGrid3D</title>
<path fill="none" stroke="#000000" d="M213.7595,-73.3008C232.3623,-62.9977 256.3718,-49.7001 276.1849,-38.7267"/>
<polygon fill="#000000" stroke="#000000" points="277.9063,-41.7744 284.9584,-33.8675 274.5147,-35.6508 277.9063,-41.7744"/>
</g>
</g>
</svg>
