<?xml version="1.0" encoding="UTF-8" standalone="no"?>
<!DOCTYPE svg PUBLIC "-//W3C//DTD SVG 1.1//EN"
 "http://www.w3.org/Graphics/SVG/1.1/DTD/svg11.dtd">
<!-- Generated by graphviz version 2.40.1 (20161225.0304)
 -->
<!-- Title: foo Pages: 1 -->
<svg width="250pt" height="116pt"
 viewBox="0.00 0.00 250.07 116.00" xmlns="http://www.w3.org/2000/svg" xmlns:xlink="http://www.w3.org/1999/xlink">
<g id="graph0" class="graph" transform="scale(1 1) rotate(0) translate(4 112)">
<title>foo</title>
<polygon fill="#ffffff" stroke="transparent" points="-4,4 -4,-112 246.0688,-112 246.0688,4 -4,4"/>
<!-- IOUtil -->
<g id="node1" class="node">
<title>IOUtil</title>
<ellipse fill="none" stroke="#000000" cx="121.2653" cy="-90" rx="37.1018" ry="18"/>
<text text-anchor="middle" x="121.2653" y="-86.7536" font-family="Georgia" font-size="14.00" fill="#000000">IOUtil</text>
</g>
<!-- CarpetSlab -->
<g id="node2" class="node">
<title>CarpetSlab</title>
<ellipse fill="none" stroke="#000000" cx="56.2653" cy="-18" rx="56.0315" ry="18"/>
<text text-anchor="middle" x="56.2653" y="-14.7536" font-family="Georgia" font-size="14.00" fill="#000000">CarpetSlab</text>
</g>
<!-- IOUtil&#45;&gt;CarpetSlab -->
<g id="edge1" class="edge">
<title>IOUtil&#45;&gt;CarpetSlab</title>
<path fill="none" stroke="#000000" d="M106.1896,-73.3008C98.1405,-64.3848 88.0668,-53.2264 79.0804,-43.2722"/>
<polygon fill="#000000" stroke="#000000" points="81.4651,-40.6905 72.1661,-35.6132 76.2692,-45.3813 81.4651,-40.6905"/>
</g>
<!-- PUGHSlab -->
<g id="node3" class="node">
<title>PUGHSlab</title>
<ellipse fill="none" stroke="#000000" cx="186.2653" cy="-18" rx="55.6078" ry="18"/>
<text text-anchor="middle" x="186.2653" y="-14.7536" font-family="Georgia" font-size="14.00" fill="#000000">PUGHSlab</text>
</g>
<!-- IOUtil&#45;&gt;PUGHSlab -->
<g id="edge2" class="edge">
<title>IOUtil&#45;&gt;PUGHSlab</title>
<path fill="none" stroke="#000000" d="M136.341,-73.3008C144.3901,-64.3848 154.4637,-53.2264 163.4501,-43.2722"/>
<polygon fill="#000000" stroke="#000000" points="166.2614,-45.3813 170.3645,-35.6132 161.0655,-40.6905 166.2614,-45.3813"/>
</g>
</g>
</svg>
